<?xml version="1.0" standalone="no"?>
<!DOCTYPE svg PUBLIC "-//W3C//DTD SVG 20010904//EN"
 "http://www.w3.org/TR/2001/REC-SVG-20010904/DTD/svg10.dtd">
<svg version="1.0" xmlns="http://www.w3.org/2000/svg"
 width="1366.000000pt" height="350.000000pt" viewBox="0 0 1366.000000 350.000000"
 preserveAspectRatio="xMidYMid meet">

<g transform="translate(0.000000,350.000000) scale(0.100000,-0.100000)"
fill="#000000" stroke="none">
<path d="M13079 3495 c-3 -2 -52 -14 -109 -26 -58 -11 -151 -32 -207 -45 -57
-13 -112 -24 -123 -24 -25 0 -81 -50 -156 -141 -33 -39 -89 -108 -126 -152
-38 -44 -65 -83 -62 -86 3 -3 15 5 26 19 11 14 41 48 67 75 25 28 81 89 124
136 42 48 90 92 105 97 15 6 61 16 102 22 41 6 111 20 155 30 44 11 150 33
235 50 241 47 242 48 99 49 -69 1 -128 -1 -130 -4z"/>
<path d="M2565 2717 c-16 -5 -49 -18 -71 -29 -23 -11 -63 -20 -90 -20 -26 -1
-59 -7 -73 -15 -15 -7 -31 -13 -38 -13 -18 0 -94 -43 -122 -69 -14 -12 -43
-32 -65 -43 -21 -11 -40 -28 -43 -37 -3 -10 -25 -28 -49 -40 -24 -13 -52 -34
-62 -48 -9 -14 -32 -42 -49 -63 -18 -20 -33 -42 -33 -48 0 -5 -9 -8 -20 -5
-20 5 -28 -11 -10 -22 6 -3 -2 -24 -17 -48 -69 -108 -83 -146 -83 -218 0 -67
-1 -69 -25 -69 -27 0 -32 -9 -13 -28 9 -9 9 -12 0 -12 -9 0 -12 -32 -12 -114
0 -66 -4 -117 -10 -121 -5 -3 -10 -37 -10 -75 0 -38 5 -72 10 -75 6 -3 10 -17
10 -31 0 -13 5 -24 10 -24 6 0 10 -16 10 -35 0 -23 5 -35 14 -35 18 0 26 -32
19 -76 -4 -22 -2 -34 6 -34 6 0 11 -9 11 -19 0 -21 37 -98 59 -121 8 -8 20
-29 28 -47 7 -18 17 -33 22 -33 5 0 16 -16 25 -34 9 -19 29 -44 44 -55 15 -11
54 -47 87 -80 33 -33 63 -61 67 -61 4 0 28 -16 54 -35 25 -19 52 -35 60 -35 9
0 34 -13 57 -28 23 -15 56 -34 72 -41 17 -7 38 -17 47 -22 10 -5 31 -9 47 -9
17 0 32 -4 35 -9 4 -5 50 -12 104 -16 53 -4 105 -9 116 -11 10 -2 38 2 63 9
38 10 49 9 75 -6 32 -19 64 -22 72 -8 4 5 25 12 48 16 23 4 57 16 75 26 19 11
44 19 58 19 13 0 27 4 30 10 3 5 19 10 36 10 16 0 37 4 47 9 9 5 31 15 48 22
17 7 35 24 41 38 6 14 16 40 23 58 7 19 24 38 41 45 16 7 32 21 35 30 3 11 15
18 28 18 66 0 85 11 112 66 15 32 24 63 21 75 -6 23 30 89 49 89 12 0 43 34
62 67 6 13 12 43 12 67 0 25 5 48 10 51 5 3 10 17 10 30 0 13 5 27 11 31 6 3
9 17 6 31 -4 24 6 68 24 105 5 10 9 29 9 42 0 14 5 28 10 31 13 8 13 149 1
173 -11 20 -28 103 -37 182 -4 30 -11 60 -16 67 -5 6 -8 29 -6 50 2 28 9 41
26 48 13 6 22 19 22 32 0 12 5 25 10 28 12 7 13 45 2 45 -11 0 -46 -41 -55
-63 -3 -9 -13 -17 -22 -17 -8 0 -15 -7 -15 -15 0 -31 -16 -13 -30 32 -9 31
-27 61 -52 84 -25 23 -38 44 -38 61 0 14 -7 31 -15 38 -8 7 -15 16 -15 20 0
10 -129 140 -156 157 -10 7 -35 22 -55 32 -19 11 -41 27 -48 35 -8 9 -19 16
-26 16 -6 0 -20 9 -31 21 -10 12 -26 18 -37 15 -14 -3 -16 0 -12 15 5 15 1 19
-14 19 -12 0 -21 -4 -21 -9 0 -5 -9 -11 -21 -14 -18 -5 -32 0 -104 37 -11 5
-33 16 -48 24 -16 8 -38 13 -50 12 -35 -4 -240 -1 -262 3 -11 3 -33 0 -50 -6z
m113 -37 c2 -6 21 -37 89 -145 53 -85 66 -131 38 -141 -8 -4 -15 -10 -15 -16
0 -5 6 -6 13 -1 6 4 23 8 37 8 19 0 26 7 31 30 4 19 38 62 89 114 79 81 84 83
129 84 36 1 53 -5 69 -21 12 -12 31 -22 42 -22 11 0 20 -3 21 -7 4 -46 16 -64
28 -44 19 30 215 -159 256 -247 12 -26 34 -58 49 -71 14 -14 26 -32 26 -41 0
-10 10 -32 23 -51 12 -19 30 -61 41 -94 10 -33 22 -70 27 -82 4 -12 13 -77 20
-145 9 -94 9 -138 0 -188 -34 -186 -41 -220 -58 -275 -14 -45 -26 -63 -46 -73
-23 -11 -26 -16 -16 -33 11 -22 6 -49 -10 -49 -15 0 -40 93 -43 163 -2 50 -6
66 -16 62 -17 -6 -28 23 -13 38 14 14 15 37 1 37 -5 0 -10 -7 -10 -15 0 -22
-18 -18 -53 11 l-31 26 -18 -53 c-9 -30 -18 -55 -18 -56 0 -2 17 -3 37 -3 42
0 73 -23 73 -55 0 -11 5 -26 10 -31 15 -15 29 -147 23 -212 -7 -78 -27 -120
-61 -127 -15 -3 -43 -10 -61 -15 -25 -7 -55 -5 -105 7 -77 17 -132 47 -165 88
-12 17 -27 25 -36 21 -23 -9 -18 -18 38 -64 36 -29 60 -42 82 -42 42 0 85 -45
85 -87 0 -18 -4 -35 -10 -38 -5 -3 -10 -14 -10 -25 0 -20 -83 -80 -112 -80
-28 0 -110 -21 -138 -36 -45 -23 -114 -44 -145 -44 -67 1 -88 55 -89 238 0 51
-4 72 -13 72 -7 0 -13 -11 -13 -24 0 -14 -5 -28 -10 -31 -6 -4 -8 -26 -5 -53
11 -86 12 -167 2 -180 -12 -16 -167 -17 -167 -1 0 8 -15 10 -45 7 -32 -4 -48
-1 -57 9 -6 8 -20 12 -31 9 -11 -2 -27 -1 -36 4 -9 4 -30 13 -46 19 -27 10
-50 26 -105 73 -8 7 -19 12 -24 10 -18 -6 -96 41 -161 97 -60 52 -185 192
-185 208 0 3 -6 14 -14 22 -8 9 -32 51 -55 93 -60 114 -52 126 162 247 57 33
66 44 46 57 -6 3 -9 18 -6 33 3 15 2 33 -3 41 -6 10 -12 5 -23 -21 -9 -23 -11
-36 -3 -41 14 -9 15 -8 -93 -73 -70 -42 -101 -55 -125 -53 -24 2 -30 7 -28 22
2 11 -1 29 -6 40 -31 69 -42 161 -23 182 5 5 11 62 13 126 3 116 3 118 34 149
l31 31 118 -46 c121 -48 134 -48 135 -5 0 9 7 22 15 29 8 7 15 17 15 24 0 6
-11 -2 -25 -17 -14 -15 -32 -27 -39 -27 -8 0 -47 13 -87 29 -41 16 -91 32
-111 36 -37 6 -38 7 -38 46 0 36 41 147 59 159 4 3 20 28 35 56 44 81 119 165
172 194 33 17 50 33 52 48 2 12 7 22 12 22 5 0 44 22 86 50 42 27 94 55 115
60 21 6 41 15 44 20 9 15 41 12 54 -4 9 -10 9 -35 2 -96 -12 -94 -4 -200 14
-200 25 0 34 24 20 50 -21 38 -19 143 4 188 22 43 61 81 111 110 27 16 45 19
80 15 25 -3 46 -9 48 -13z m246 -11 c32 -21 46 -37 46 -53 0 -29 -67 -94 -111
-106 -31 -9 -36 -8 -56 16 -12 15 -27 47 -34 72 -12 42 -11 46 10 64 13 10 34
18 47 18 12 0 26 5 29 10 10 16 21 12 69 -21z"/>
<path d="M2570 2534 c0 -14 3 -14 15 -4 8 7 15 14 15 16 0 2 -7 4 -15 4 -8 0
-15 -7 -15 -16z"/>
<path d="M2781 2419 c-7 -12 -10 -23 -8 -26 3 -3 11 5 17 17 15 28 8 35 -9 9z"/>
<path d="M3027 2413 c-12 -12 -7 -31 10 -37 24 -9 39 9 23 29 -14 16 -23 19
-33 8z"/>
<path d="M2080 2346 c0 -9 7 -16 16 -16 17 0 14 22 -4 28 -7 2 -12 -3 -12 -12z"/>
<path d="M3350 2339 c-12 -22 -7 -49 9 -49 13 0 42 55 34 64 -13 12 -33 6 -43
-15z"/>
<path d="M2340 2285 c-7 -8 -8 -15 -2 -15 5 0 15 7 22 15 7 8 8 15 2 15 -5 0
-15 -7 -22 -15z"/>
<path d="M1977 2253 c-12 -11 -8 -23 8 -23 8 0 15 7 15 15 0 16 -12 20 -23 8z"/>
<path d="M3595 1939 c-4 -6 -3 -15 3 -21 6 -6 11 -4 15 6 7 18 -9 31 -18 15z"/>
<path d="M3404 1816 c-10 -8 -17 -17 -14 -19 3 -3 16 3 29 14 27 22 15 26 -15
5z"/>
<path d="M2007 1803 c-4 -3 -7 -15 -7 -25 0 -26 24 -17 28 10 3 21 -8 29 -21
15z"/>
<path d="M1917 1764 c-8 -8 1 -24 14 -24 5 0 9 7 9 15 0 15 -12 20 -23 9z"/>
<path d="M2762 1719 c-13 -5 -28 -6 -34 -3 -34 21 -207 -101 -208 -147 0 -20
-18 -35 -45 -41 -11 -2 -25 -14 -31 -26 -18 -36 -30 -46 -37 -29 -3 8 5 25 16
38 25 27 60 80 55 82 -2 1 -13 8 -26 15 -22 12 -37 10 -121 -14 -11 -4 -9 -9
8 -25 12 -11 27 -18 34 -16 8 4 7 6 -3 6 -8 1 -2 8 14 16 45 24 74 5 43 -27
-7 -7 -16 -22 -21 -33 -6 -16 -9 -17 -17 -5 -8 12 -10 10 -6 -7 6 -26 3 -27
-24 -13 -10 6 -19 18 -19 27 0 12 -3 13 -14 4 -11 -9 -19 -9 -35 1 -12 7 -21
16 -21 20 0 13 28 9 33 -4 2 -7 8 -10 12 -6 4 4 0 14 -9 23 -13 13 -24 14 -58
7 l-43 -8 65 -42 c36 -23 81 -47 100 -53 19 -6 42 -17 50 -24 28 -24 104 -38
193 -36 49 1 94 -2 100 -8 7 -5 89 -13 182 -16 151 -5 174 -4 205 12 23 12 36
26 38 43 2 14 12 34 21 45 10 11 21 25 25 32 11 20 -14 110 -37 130 -22 20
-159 49 -178 38 -26 -17 19 -107 62 -125 15 -6 37 -22 48 -34 l22 -23 -22 -37
c-37 -63 -54 -66 -187 -36 -48 11 -104 22 -124 25 -48 7 -49 27 -7 78 47 57
27 67 -56 28 -37 -17 -73 -31 -79 -31 -7 0 -28 -16 -47 -36 -18 -20 -46 -42
-61 -50 -25 -13 -27 -12 -33 7 -12 36 35 119 67 119 4 0 8 10 8 21 0 17 4 20
23 15 12 -3 32 -6 45 -6 12 0 22 -4 22 -10 0 -5 -5 -10 -11 -10 -11 0 -39 -24
-39 -34 0 -4 73 29 143 66 10 5 27 6 37 3 19 -6 100 33 100 48 0 11 -28 8 -32
-4 -5 -15 -115 -28 -129 -15 -9 8 -10 7 -6 -5 9 -28 -35 -41 -88 -27 -25 7
-45 16 -45 20 0 4 14 14 30 23 27 14 30 14 30 0 0 -8 5 -15 11 -15 6 0 8 8 4
20 -5 15 0 21 19 26 14 3 36 4 49 0 14 -3 33 1 47 11 17 12 25 13 28 5 2 -7
15 -12 28 -12 14 0 39 -7 55 -16 17 -8 34 -13 37 -9 10 10 -40 45 -64 45 -11
0 -29 7 -40 15 -22 17 -22 17 -52 4z"/>
<path d="M3570 1662 c-29 -24 -19 -42 24 -42 41 0 64 23 46 45 -17 20 -43 19
-70 -3z"/>
<path d="M1785 1557 c-13 -10 -15 -16 -6 -21 12 -8 41 10 41 25 0 13 -13 11
-35 -4z"/>
<path d="M2553 1516 c-13 -6 -25 -17 -28 -25 -11 -27 6 -24 38 7 32 33 29 38
-10 18z"/>
<path d="M2880 1465 c-10 -12 -10 -15 4 -15 9 0 16 7 16 15 0 8 -2 15 -4 15
-2 0 -9 -7 -16 -15z"/>
<path d="M2015 1226 c-22 -34 -17 -40 15 -16 19 14 22 22 13 31 -8 8 -15 5
-28 -15z"/>
<path d="M3380 1060 c0 -5 5 -10 10 -10 6 0 10 5 10 10 0 6 -4 10 -10 10 -5 0
-10 -4 -10 -10z"/>
<path d="M2080 949 c0 -5 5 -7 10 -4 6 3 10 8 10 11 0 2 -4 4 -10 4 -5 0 -10
-5 -10 -11z"/>
<path d="M2385 949 c-10 -15 1 -23 20 -15 9 3 13 10 10 16 -8 13 -22 13 -30
-1z"/>
<path d="M2560 919 c0 -5 5 -7 10 -4 6 3 10 8 10 11 0 2 -4 4 -10 4 -5 0 -10
-5 -10 -11z"/>
<path d="M7500 2399 c-58 -31 -132 -98 -155 -139 -7 -14 -21 -41 -30 -60 -9
-19 -21 -43 -26 -52 -5 -10 -9 -31 -9 -48 0 -16 -5 -30 -11 -30 -7 0 -9 -35
-6 -107 5 -119 15 -180 28 -189 5 -3 9 -15 9 -26 0 -16 71 -174 131 -290 14
-27 11 -112 -6 -144 -13 -27 -69 -88 -77 -84 -5 2 -40 -10 -60 -21 -10 -5 -27
-9 -39 -9 -21 0 -21 -3 -15 -67 4 -38 11 -72 17 -78 5 -5 9 -19 9 -31 0 -13 5
-26 10 -29 6 -3 10 -19 10 -35 0 -16 5 -32 10 -35 6 -3 10 -16 10 -27 0 -28
40 -106 57 -112 25 -10 136 54 187 107 118 127 159 237 159 432 1 150 -10 189
-110 405 -64 138 -73 178 -49 235 17 41 46 58 111 65 58 6 59 9 30 120 -9 36
-19 80 -22 98 -3 18 -9 35 -14 38 -5 3 -9 16 -9 30 0 13 -10 44 -22 69 -27 53
-41 55 -118 14z"/>
<path d="M8850 2420 c0 -5 -10 -10 -23 -10 -13 0 -28 -5 -35 -12 -7 -7 -12 -8
-12 -3 0 5 -31 -22 -70 -60 -38 -38 -70 -75 -70 -81 0 -6 -7 -17 -15 -24 -14
-12 -28 -38 -67 -130 -6 -14 -14 -33 -19 -42 -5 -10 -9 -27 -9 -37 0 -11 -4
-23 -10 -26 -5 -3 -10 -19 -10 -35 0 -16 -5 -32 -11 -35 -6 -4 -9 -26 -8 -49
1 -22 -2 -49 -6 -59 -12 -29 0 -436 14 -450 6 -6 11 -25 11 -42 0 -17 4 -35 8
-40 5 -6 17 -37 27 -70 50 -163 181 -336 284 -376 63 -24 169 -25 234 -3 66
23 178 136 224 228 54 107 76 176 105 326 14 73 15 360 0 435 -32 174 -73 284
-154 410 -39 61 -152 164 -187 171 -17 4 -34 11 -37 15 -7 13 -164 11 -164 -1z
m198 -474 c21 -18 33 -41 62 -111 23 -56 39 -290 21 -308 -6 -6 -11 -23 -11
-38 0 -15 -4 -31 -10 -34 -5 -3 -10 -15 -10 -25 0 -10 -11 -39 -24 -64 -83
-157 -209 -152 -291 10 -29 58 -29 62 -30 219 0 171 8 210 60 299 64 110 150
129 233 52z"/>
<path d="M3710 2403 c0 -20 18 -43 33 -43 4 0 7 12 5 27 -4 32 -38 46 -38 16z"/>
<path d="M4277 2404 c-3 -3 -110 -6 -239 -7 l-233 -2 -3 -169 c-1 -106 1 -173
8 -180 14 -14 14 -762 0 -771 -17 -10 -12 -396 5 -418 19 -26 73 -36 183 -37
92 0 93 0 103 27 6 17 8 61 4 108 -14 182 -16 447 -4 461 10 12 37 14 133 12
67 -2 129 -7 138 -11 11 -6 23 -2 37 12 20 20 21 32 21 186 0 163 -4 186 -37
222 -14 15 -119 18 -128 3 -7 -11 -133 -14 -159 -4 -22 9 -23 139 -1 148 14 5
75 5 285 2 l85 -1 -2 60 c-15 364 -15 365 -123 365 -37 0 -69 -3 -73 -6z"/>
<path d="M3632 2388 c-17 -17 -15 -48 4 -48 22 0 47 28 40 45 -7 18 -28 19
-44 3z"/>
<path d="M4536 2393 c-11 -11 -7 -391 4 -398 6 -4 10 -203 10 -564 0 -537 1
-558 19 -578 19 -20 34 -21 306 -28 172 -5 290 -4 296 2 5 5 13 87 17 183 7
146 6 180 -7 208 l-15 32 -80 0 c-45 0 -86 -4 -92 -8 -7 -4 -48 -6 -93 -4
l-81 4 4 431 c3 238 8 482 11 542 5 87 3 118 -9 147 l-16 37 -134 0 c-74 0
-137 -3 -140 -6z"/>
<path d="M5257 1812 c4 -351 3 -591 -3 -594 -5 -4 -7 -79 -4 -178 6 -215 2
-210 155 -210 155 0 148 -12 140 240 -8 258 -8 860 0 1089 5 145 3 179 -10
206 l-15 33 -135 1 -135 2 7 -589z"/>
<path d="M5784 2388 c-3 -4 -37 -8 -75 -8 l-70 0 6 -207 c13 -536 16 -906 5
-917 -6 -6 -10 -79 -10 -193 0 -241 -5 -233 139 -233 70 0 111 4 119 12 9 9
12 111 12 397 0 421 -2 409 54 281 16 -36 44 -98 63 -137 18 -40 33 -75 33
-78 0 -3 18 -44 40 -91 22 -47 40 -88 40 -91 0 -3 14 -34 30 -69 17 -34 37
-82 46 -106 8 -24 26 -60 40 -81 l24 -37 99 0 c70 0 102 4 110 13 7 9 12 188
16 573 2 307 7 638 10 734 5 151 4 180 -11 212 -17 37 -18 38 -70 38 -29 0
-56 -4 -59 -10 -3 -5 -38 -10 -76 -10 l-70 0 5 -207 c4 -115 9 -295 12 -402 3
-119 1 -198 -4 -203 -7 -7 -26 24 -56 86 -25 52 -46 98 -46 101 0 8 -52 128
-91 211 -16 34 -29 64 -29 68 0 3 -13 35 -30 71 -16 36 -30 68 -30 71 0 9 -74
179 -81 184 -3 3 -8 13 -12 22 -4 13 -16 17 -42 16 -20 -1 -38 -5 -41 -10z"/>
<path d="M6585 2390 c-3 -5 -5 -57 -4 -115 1 -58 -1 -109 -5 -112 -13 -14 -6
-129 10 -152 15 -20 22 -22 73 -18 31 3 71 8 89 12 l32 7 0 -360 c0 -230 -4
-363 -10 -367 -6 -4 -10 -82 -10 -201 0 -190 5 -224 35 -246 17 -13 250 -9
263 4 15 15 17 399 2 414 -7 7 -9 140 -8 380 l3 369 90 5 c108 6 103 -3 104
186 1 97 -3 141 -14 168 l-15 36 -65 0 c-35 0 -67 -4 -70 -10 -4 -6 -85 -10
-210 -10 -125 0 -206 4 -210 10 -8 13 -72 13 -80 0z"/>
<path d="M7806 2393 c-3 -3 -6 -57 -6 -120 0 -69 -4 -113 -10 -113 -6 0 -10
-28 -10 -65 0 -37 4 -65 10 -65 6 0 10 -7 10 -15 0 -27 55 -31 157 -9 l32 6 3
-357 c2 -196 0 -359 -4 -362 -5 -2 -8 -97 -8 -211 0 -268 -10 -252 153 -252
67 0 128 4 135 8 10 7 12 53 7 218 -10 398 -16 909 -10 932 5 20 11 22 84 22
44 0 86 3 95 6 23 9 23 306 0 352 -15 30 -18 32 -74 32 -32 0 -62 -4 -65 -10
-8 -12 -411 -14 -419 -2 -6 10 -71 14 -80 5z"/>
<path d="M9625 2390 c-3 -6 -36 -10 -73 -10 l-68 0 1 -759 c0 -624 3 -761 14
-775 19 -23 212 -24 236 0 14 14 15 60 15 391 -1 207 1 377 3 380 4 4 17 -20
56 -109 12 -27 30 -69 42 -95 24 -55 46 -105 64 -148 7 -16 23 -52 35 -80 12
-27 26 -59 30 -70 4 -11 22 -50 39 -86 17 -37 31 -70 31 -73 0 -15 41 -95 56
-110 12 -12 37 -16 107 -16 51 0 99 5 107 10 13 8 15 82 17 557 1 301 4 637 8
745 5 169 4 202 -10 228 -15 28 -20 31 -63 29 -26 -1 -52 -6 -57 -10 -6 -4
-41 -9 -79 -11 l-68 -3 3 -185 c10 -673 11 -634 -6 -620 -8 7 -15 16 -15 21 0
4 -15 41 -34 81 -19 40 -51 114 -71 163 -20 50 -50 117 -66 149 -16 32 -29 63
-29 67 0 5 -12 34 -26 66 -14 32 -37 85 -51 118 -65 154 -70 162 -108 163 -19
1 -37 -3 -40 -8z"/>
<path d="M10444 2386 c-3 -7 -2 -76 1 -152 12 -283 16 -947 5 -958 -6 -6 -10
-86 -10 -206 0 -184 1 -198 20 -218 20 -21 27 -22 268 -22 136 0 270 -3 298
-6 60 -8 60 -8 75 126 19 167 21 239 7 270 -12 28 -17 30 -64 30 -28 0 -53 -3
-56 -6 -4 -3 -53 -6 -111 -6 -143 0 -147 4 -147 109 l0 83 136 0 c81 0 144 -4
156 -11 37 -20 44 7 52 200 8 211 3 231 -54 231 -20 0 -41 -5 -46 -10 -7 -7
-56 -10 -125 -8 l-114 3 0 75 0 75 180 0 180 0 -1 105 c-2 132 -16 258 -32
288 l-13 22 -300 0 c-244 0 -301 -3 -305 -14z"/>
<path d="M3560 2311 c-16 -30 -12 -43 9 -36 11 3 23 0 27 -7 4 -6 2 -14 -4
-16 -22 -7 -12 -22 14 -22 29 0 54 21 54 44 0 10 -9 16 -24 16 -19 0 -23 4
-19 20 4 16 0 20 -20 20 -16 0 -31 -8 -37 -19z"/>
<path d="M3672 2233 c5 -26 38 -29 38 -4 0 15 -6 21 -21 21 -14 0 -19 -5 -17
-17z"/>
<path d="M1815 1080 c3 -5 10 -10 16 -10 5 0 9 5 9 10 0 6 -7 10 -16 10 -8 0
-12 -4 -9 -10z"/>
</g>
</svg>
