<?xml version="1.0" standalone="no"?>
<!DOCTYPE svg PUBLIC "-//W3C//DTD SVG 20010904//EN"
 "http://www.w3.org/TR/2001/REC-SVG-20010904/DTD/svg10.dtd">
<svg version="1.0" xmlns="http://www.w3.org/2000/svg"
 width="300.000000pt" height="300.000000pt" viewBox="0 0 300.000000 300.000000"
 preserveAspectRatio="xMidYMid meet">

<g transform="translate(0.000000,300.000000) scale(0.100000,-0.100000)"
fill="#000000" stroke="none">
<path d="M1450 2984 c0 -9 14 -33 30 -54 17 -21 66 -97 109 -169 69 -113 79
-136 74 -165 -5 -31 -3 -34 26 -38 37 -5 41 -3 41 31 0 35 2 38 134 171 64 65
116 122 116 127 0 9 -64 33 -89 33 -6 0 -11 -16 -11 -35 0 -19 -4 -35 -10 -35
-5 0 -10 6 -10 13 0 8 -3 7 -10 -3 -6 -9 -5 -17 3 -22 14 -8 5 -18 -20 -22
-10 -2 -17 -11 -17 -20 1 -9 -6 -16 -17 -16 -12 0 -16 -5 -13 -15 5 -11 -2
-15 -27 -16 -29 0 -31 -2 -14 -10 15 -7 12 -8 -17 -5 -26 3 -38 0 -42 -10 -15
-38 -75 44 -106 144 -12 39 -12 45 9 72 l22 30 -59 0 c-41 0 -64 5 -72 15 -16
20 -30 19 -30 -1z"/>
<path d="M1395 2960 c3 -5 8 -10 11 -10 2 0 4 5 4 10 0 6 -5 10 -11 10 -5 0
-7 -4 -4 -10z"/>
<path d="M1164 2935 c-10 -8 -26 -15 -35 -15 -8 0 -27 -6 -41 -12 -25 -12 -27
-19 -38 -123 -8 -69 -10 -147 -5 -208 6 -84 9 -97 25 -97 34 0 43 25 23 62
-14 26 -18 54 -17 128 1 112 15 150 80 220 43 46 48 75 8 45z"/>
<path d="M2155 2840 c3 -5 13 -10 21 -10 8 0 12 5 9 10 -3 6 -13 10 -21 10 -8
0 -12 -4 -9 -10z"/>
<path d="M1303 2783 c-18 -6 -16 -33 1 -33 19 0 31 19 20 30 -5 4 -15 5 -21 3z"/>
<path d="M2256 2775 c-6 -16 13 -55 26 -55 10 0 10 32 2 54 -8 20 -20 20 -28
1z"/>
<path d="M2350 2721 c0 -5 7 -14 15 -21 12 -10 15 -10 15 3 0 8 -7 17 -15 21
-8 3 -15 2 -15 -3z"/>
<path d="M1210 2624 c0 -8 5 -12 10 -9 6 4 8 11 5 16 -9 14 -15 11 -15 -7z"/>
<path d="M1610 2615 c1 -26 2 -28 11 -12 8 14 8 22 0 30 -8 8 -11 3 -11 -18z"/>
<path d="M1957 2593 c-21 -20 9 -62 46 -63 18 0 21 11 11 48 -6 21 -42 31 -57
15z"/>
<path d="M582 2498 c2 -15 11 -24 26 -26 27 -4 28 9 4 31 -25 23 -34 21 -30
-5z"/>
<path d="M2430 2488 c-14 -23 -16 -36 -9 -50 16 -30 44 -21 62 20 23 52 21 62
-8 62 -18 0 -31 -10 -45 -32z"/>
<path d="M560 2436 c0 -8 5 -18 10 -21 6 -3 10 3 10 14 0 12 -4 21 -10 21 -5
0 -10 -6 -10 -14z"/>
<path d="M988 2429 c-10 -5 -18 -14 -18 -19 0 -17 15 -11 28 10 14 23 13 23
-10 9z"/>
<path d="M440 2355 c0 -8 7 -15 15 -15 8 0 15 7 15 15 0 8 -7 15 -15 15 -8 0
-15 -7 -15 -15z"/>
<path d="M2740 2276 c0 -2 7 -9 15 -16 12 -10 15 -10 15 4 0 9 -7 16 -15 16
-8 0 -15 -2 -15 -4z"/>
<path d="M400 2130 c0 -5 5 -10 10 -10 6 0 10 5 10 10 0 6 -4 10 -10 10 -5 0
-10 -4 -10 -10z"/>
<path d="M2830 2113 c0 -4 5 -23 11 -42 7 -20 14 -42 16 -50 2 -8 6 -12 8 -9
8 8 -17 108 -27 108 -4 0 -8 -3 -8 -7z"/>
<path d="M2878 1970 c2 -16 6 -30 8 -30 2 0 4 14 4 30 0 17 -4 30 -8 30 -5 0
-7 -13 -4 -30z"/>
<path d="M124 1955 c-8 -21 4 -35 31 -35 23 0 68 -15 140 -45 17 -7 68 -27
114 -45 80 -30 86 -31 98 -14 7 10 13 27 13 37 0 17 -5 19 -34 14 -22 -3 -41
0 -53 8 -10 8 -26 15 -36 15 -11 0 -33 7 -50 16 -58 30 -63 32 -121 39 -31 4
-59 11 -62 16 -8 14 -34 10 -40 -6z"/>
<path d="M550 1930 c-14 -11 -19 -20 -12 -20 6 0 15 0 19 -1 4 0 10 9 15 20 9
25 9 25 -22 1z"/>
<path d="M2787 1900 c-6 -22 7 -35 23 -25 15 9 12 45 -4 45 -7 0 -16 -9 -19
-20z"/>
<path d="M2501 1731 c-35 -27 -8 -37 29 -10 16 13 30 24 30 26 0 10 -39 0 -59
-16z"/>
<path d="M472 1698 c-15 -49 -11 -57 17 -29 24 24 27 44 8 59 -10 8 -15 1 -25
-30z"/>
<path d="M336 1662 c-9 -14 12 -35 28 -29 23 9 20 37 -3 37 -11 0 -22 -4 -25
-8z"/>
<path d="M1580 1608 c-14 -5 -41 -10 -60 -9 -45 1 -97 -21 -187 -81 -55 -37
-80 -61 -103 -101 -29 -51 -41 -105 -20 -92 6 4 10 12 9 18 -4 31 1 41 13 29
17 -17 65 -15 72 3 4 10 19 15 49 15 24 0 47 4 53 9 5 5 27 11 49 13 22 3 49
8 60 13 16 6 18 5 8 -5 -15 -16 -96 -53 -88 -40 3 6 0 10 -8 10 -18 0 -31 -30
-14 -31 7 0 0 -5 -15 -11 -16 -5 -28 -14 -28 -19 0 -6 7 -6 18 -1 78 42 157
72 201 78 37 5 71 19 119 51 37 24 74 42 82 40 8 -3 24 -8 35 -12 14 -6 10 3
-15 29 -34 37 -82 68 -97 64 -4 -1 -30 8 -57 20 -27 12 -49 22 -50 21 0 0 -12
-5 -26 -11z m53 -41 c-2 -25 0 -26 14 -12 14 14 17 14 30 -2 10 -13 16 -15 19
-5 9 20 34 14 34 -8 0 -11 -7 -20 -15 -20 -8 0 -15 -4 -15 -10 0 -15 14 -12
36 8 20 19 44 19 44 1 0 -6 -5 -7 -11 -4 -6 4 -17 -2 -24 -13 -8 -10 -29 -25
-47 -33 -18 -7 -41 -22 -50 -32 -18 -20 -18 -20 -18 4 -1 21 -2 22 -11 7 -14
-26 -31 -22 -25 5 3 12 3 16 0 10 -3 -7 -12 -13 -20 -13 -8 0 -14 6 -14 13 0
8 -4 7 -10 -3 -8 -13 -13 -13 -31 -2 -11 7 -24 10 -27 6 -4 -4 -1 -9 6 -11 25
-9 -1 -23 -44 -23 -32 0 -44 4 -44 15 0 8 4 15 9 15 5 0 11 18 13 40 2 22 1
40 -2 40 -11 0 -38 -59 -29 -62 15 -5 -1 -38 -18 -38 -9 0 -13 6 -9 15 3 8 1
15 -4 15 -6 0 -10 -5 -10 -11 0 -6 -9 -8 -20 -4 -13 4 -20 2 -20 -7 0 -10 -3
-9 -10 2 -9 13 -11 13 -19 0 -14 -20 -3 -32 22 -25 20 6 21 5 5 -8 -10 -8 -18
-19 -18 -25 0 -5 -7 -13 -16 -16 -32 -12 -37 -5 -14 19 18 20 20 25 8 25 -9 0
-19 -6 -21 -12 -4 -10 -6 -10 -6 -1 -1 17 82 103 99 103 10 0 10 -3 0 -15 -11
-13 -10 -14 4 -9 10 4 14 13 11 23 -6 21 48 43 84 34 12 -3 26 -2 30 3 10 14
69 43 75 36 12 -12 5 -22 -15 -22 -11 0 -17 -4 -14 -10 3 -5 16 -9 28 -8 12 0
31 -3 42 -8 19 -7 19 -6 5 12 -8 10 -19 22 -25 27 -14 10 15 28 40 25 15 -2
20 -10 18 -31z m-59 -136 c6 -10 -24 -25 -32 -16 -3 3 0 5 7 5 7 0 9 5 6 10
-3 6 -2 10 4 10 5 0 12 -4 15 -9z"/>
<path d="M1595 1580 c3 -5 10 -10 16 -10 5 0 9 5 9 10 0 6 -7 10 -16 10 -8 0
-12 -4 -9 -10z"/>
<path d="M1485 1530 c-3 -5 -2 -10 4 -10 5 0 13 5 16 10 3 6 2 10 -4 10 -5 0
-13 -4 -16 -10z"/>
<path d="M1660 1510 c0 -5 5 -10 10 -10 6 0 10 5 10 10 0 6 -4 10 -10 10 -5 0
-10 -4 -10 -10z"/>
<path d="M2938 1530 c-3 -47 -5 -87 -2 -89 11 -12 15 14 12 90 l-3 84 -7 -85z"/>
<path d="M1870 1525 c-10 -12 -9 -23 5 -57 25 -63 52 -96 98 -119 47 -24 97
-67 97 -84 0 -7 -9 -20 -19 -29 -11 -10 -23 -31 -26 -47 -5 -22 -17 -33 -53
-49 -41 -19 -52 -19 -97 -9 -27 7 -54 17 -60 23 -5 6 -35 12 -65 13 -30 2 -56
7 -58 13 -2 5 -25 10 -52 10 -26 0 -64 7 -84 15 l-36 15 15 36 c8 19 31 55 51
79 l36 45 -28 0 c-16 0 -67 -16 -114 -36 -118 -50 -120 -50 -127 -26 l-5 20
-20 -20 c-16 -16 -30 -19 -69 -16 -60 6 -76 -2 -63 -33 10 -22 2 -64 -19 -96
-13 -21 -27 -15 -27 13 0 14 4 23 9 20 5 -3 12 1 15 10 4 9 2 13 -5 8 -14 -8
-3 64 12 82 16 19 -2 24 -32 8 -16 -8 -29 -22 -29 -32 0 -24 -46 -75 -62 -69
-9 4 -9 6 -1 6 7 1 10 12 7 29 -9 52 -9 52 -91 52 -80 1 -145 21 -150 48 -4
16 9 15 33 -3 23 -17 34 -19 34 -5 0 6 -7 10 -15 10 -8 0 -15 5 -15 11 0 6 8
8 18 5 13 -4 19 -1 19 9 0 20 -25 19 -67 -3 -19 -11 -41 -17 -47 -15 -29 10
-9 -14 35 -42 118 -75 154 -95 194 -106 24 -7 50 -18 58 -25 23 -18 132 -53
165 -53 17 0 80 1 140 2 89 2 114 -1 133 -14 18 -14 50 -17 170 -19 355 -6
354 -6 399 18 48 25 66 51 52 73 -14 22 -11 33 13 44 12 6 30 22 40 36 17 22
18 32 9 89 -17 103 -46 130 -168 155 -132 26 -139 26 -153 10z m-531 -242
c-20 -29 -140 -135 -146 -129 -3 3 0 12 6 20 7 8 11 20 10 28 -3 27 2 37 16
32 12 -5 13 -10 4 -20 -14 -17 2 -19 19 -2 9 9 7 14 -6 24 -9 7 -14 16 -10 20
4 4 14 2 21 -5 11 -9 17 -8 27 3 6 9 9 19 6 25 -3 5 2 7 12 4 10 -2 24 3 32
12 17 21 25 12 9 -12z m-385 -9 c9 -24 7 -28 -9 -14 -17 14 -20 30 -6 30 5 0
12 -7 15 -16z m60 4 c7 -7 15 -23 18 -35 5 -17 2 -23 -11 -23 -24 0 -41 20
-41 47 0 25 15 30 34 11z m245 8 c-12 -10 -59 -15 -59 -6 0 5 14 10 32 10 17
0 29 -2 27 -4z"/>
<path d="M2752 1514 c-15 -10 -22 -24 -20 -37 3 -19 9 -22 56 -22 60 1 88 20
77 54 -5 17 -14 21 -48 21 -24 0 -53 -7 -65 -16z"/>
<path d="M1030 1444 c-19 -7 -43 -13 -53 -13 -9 -1 -26 -6 -36 -13 -17 -11
-16 -13 16 -35 20 -13 45 -22 57 -20 17 3 15 5 -11 12 -18 4 -33 14 -33 21 0
8 3 14 7 14 10 0 76 -21 96 -31 12 -7 17 -5 17 6 0 8 7 16 15 17 8 0 21 1 28
2 6 1 11 -8 9 -19 -2 -17 0 -16 12 5 21 35 20 38 -14 45 -16 4 -32 11 -35 16
-8 12 -32 10 -75 -7z m50 -24 c0 -5 -2 -10 -4 -10 -3 0 -8 5 -11 10 -3 6 -1
10 4 10 6 0 11 -4 11 -10z m-33 -6 c-3 -3 -12 -4 -19 -1 -8 3 -5 6 6 6 11 1
17 -2 13 -5z"/>
<path d="M451 1382 c-7 -20 -23 -45 -35 -54 -11 -10 -16 -18 -9 -18 6 0 15 5
18 10 10 15 35 12 35 -5 0 -8 -7 -15 -15 -15 -8 0 -19 -9 -25 -20 -6 -11 -17
-20 -24 -20 -16 0 -208 -109 -217 -123 -4 -5 -19 -7 -33 -5 -15 3 -25 3 -23
-1 2 -3 9 -20 16 -37 l12 -31 39 19 c21 11 44 26 51 34 6 8 15 14 20 14 5 0
32 15 61 34 29 18 82 48 118 66 36 18 66 34 68 35 2 2 -3 16 -11 32 -8 16 -15
45 -14 66 1 54 -16 65 -32 19z"/>
<path d="M153 1368 c-13 -6 -23 -17 -23 -25 0 -22 35 -15 60 12 22 23 22 25 4
24 -10 0 -29 -5 -41 -11z"/>
<path d="M1100 1370 c0 -5 7 -10 15 -10 9 0 12 -6 9 -15 -4 -8 -1 -15 5 -15
15 0 14 23 -1 38 -15 15 -28 16 -28 2z"/>
<path d="M1058 1353 c7 -3 16 -2 19 1 4 3 -2 6 -13 5 -11 0 -14 -3 -6 -6z"/>
<path d="M1070 1310 c-9 -17 -8 -20 10 -20 13 0 20 7 20 20 0 11 -4 20 -10 20
-5 0 -14 -9 -20 -20z"/>
<path d="M1080 1270 c0 -5 5 -10 10 -10 6 0 10 5 10 10 0 6 -4 10 -10 10 -5 0
-10 -4 -10 -10z"/>
<path d="M1738 1231 l-37 -38 27 0 c15 0 37 -4 50 -8 16 -5 22 -3 22 8 0 9 -6
22 -13 29 -8 7 -12 20 -9 30 6 24 3 23 -40 -21z m37 -11 c3 -5 2 -10 -4 -10
-5 0 -13 5 -16 10 -3 6 -2 10 4 10 5 0 13 -4 16 -10z"/>
<path d="M2487 1253 c-4 -3 -7 -18 -7 -33 0 -14 -9 -43 -20 -64 -10 -22 -17
-43 -14 -47 3 -5 29 -9 57 -9 90 -1 126 -57 147 -228 15 -126 22 -153 34 -149
6 2 16 13 21 24 6 12 17 28 24 37 12 14 11 19 -4 35 -24 27 -38 85 -39 157 -1
35 -7 68 -15 77 -10 13 -11 24 -2 48 15 45 14 54 -6 37 -34 -30 -60 7 -29 41
7 9 17 27 21 39 6 20 4 23 -12 20 -11 -2 -19 -13 -21 -31 -2 -15 -6 -27 -9
-27 -3 0 -25 18 -50 40 -45 39 -63 47 -76 33z"/>
<path d="M2812 940 c-8 -13 -23 -20 -43 -20 -29 0 -31 -2 -24 -27 3 -15 11
-31 17 -34 6 -4 7 -16 3 -28 -3 -11 -4 -21 -1 -21 12 0 56 56 56 72 0 9 5 20
10 23 12 7 14 55 2 55 -4 0 -13 -9 -20 -20z"/>
<path d="M155 910 c3 -5 8 -10 11 -10 2 0 4 5 4 10 0 6 -5 10 -11 10 -5 0 -7
-4 -4 -10z"/>
<path d="M496 905 c-15 -16 -31 -54 -24 -60 7 -8 58 46 58 60 0 19 -15 19 -34
0z"/>
<path d="M2038 642 c-16 -7 -28 -17 -28 -21 0 -4 20 -22 45 -41 25 -19 45 -37
45 -40 0 -15 81 -50 114 -50 28 0 44 -8 79 -42 25 -24 46 -50 49 -58 6 -19 35
-5 92 46 l39 34 -57 0 c-58 0 -121 16 -203 52 -24 10 -46 18 -50 18 -16 0 -84
69 -91 92 -7 22 -9 23 -34 10z"/>
<path d="M2475 651 c-3 -5 -1 -12 5 -16 12 -7 30 2 30 16 0 12 -27 12 -35 0z"/>
<path d="M586 501 c-4 -7 -5 -15 -2 -18 9 -9 19 4 14 18 -4 11 -6 11 -12 0z"/>
<path d="M1032 498 c-30 -30 -3 -50 33 -24 18 13 18 14 -2 24 -14 8 -23 8 -31
0z"/>
<path d="M1560 447 c0 -50 -7 -62 -27 -45 -13 10 -14 5 -8 -38 4 -27 14 -73
22 -103 9 -31 13 -69 9 -92 -9 -54 7 -89 39 -89 l26 0 -6 73 c-3 39 -11 91
-17 114 -5 22 -8 82 -7 132 4 81 2 91 -13 91 -14 0 -18 -9 -18 -43z m-13 -129
c-2 -13 -4 -3 -4 22 0 25 2 35 4 23 2 -13 2 -33 0 -45z"/>
<path d="M1277 454 c-4 -4 -4 -10 -1 -15 6 -10 34 0 34 12 0 10 -24 12 -33 3z"/>
<path d="M986 418 l-16 -32 25 24 c26 24 32 40 16 40 -5 0 -17 -14 -25 -32z"/>
<path d="M906 335 c-4 -13 -2 -14 14 -5 23 13 26 20 6 20 -8 0 -16 -7 -20 -15z"/>
<path d="M750 269 c0 -12 52 -21 62 -11 6 6 -4 11 -26 14 -20 2 -36 1 -36 -3z"/>
<path d="M1015 270 c3 -5 8 -10 11 -10 2 0 4 5 4 10 0 6 -5 10 -11 10 -5 0 -7
-4 -4 -10z"/>
<path d="M1498 73 c7 -3 16 -2 19 1 4 3 -2 6 -13 5 -11 0 -14 -3 -6 -6z"/>
</g>
</svg>
