<?xml version="1.0" encoding="UTF-8"?>
<!DOCTYPE svg PUBLIC "-//W3C//DTD SVG 1.1//EN" "http://www.w3.org/Graphics/SVG/1.1/DTD/svg11.dtd">
<svg xmlns="http://www.w3.org/2000/svg" version="1.1" width="698px" height="183px" style="shape-rendering:geometricPrecision; text-rendering:geometricPrecision; image-rendering:optimizeQuality; fill-rule:evenodd; clip-rule:evenodd" xmlns:xlink="http://www.w3.org/1999/xlink">
<g><path style="opacity:1" fill="#2b7ba9" d="M 84.5,-0.5 C 288.833,-0.5 493.167,-0.5 697.5,-0.5C 697.5,33.8333 697.5,68.1667 697.5,102.5C 695.547,96.9262 694.88,90.9262 695.5,84.5C 676.326,84.8303 657.326,84.497 638.5,83.5C 638.5,82.5 638.5,81.5 638.5,80.5C 640.881,62.9708 635.547,48.3042 622.5,36.5C 627.681,36.6028 632.681,37.6028 637.5,39.5C 638.94,36.7719 638.274,34.6052 635.5,33C 624.321,29.4592 613.321,29.9592 602.5,34.5C 600.143,34.6633 597.81,34.4966 595.5,34C 594.837,32.4815 593.837,31.3149 592.5,30.5C 593.598,27.132 592.598,26.632 589.5,29C 587.5,31 585.5,33 583.5,35C 584.044,35.7172 584.711,36.2172 585.5,36.5C 588.445,38.438 591.612,40.1047 595,41.5C 595.236,39.8807 596.069,38.8807 597.5,38.5C 597.5,38.8333 597.5,39.1667 597.5,39.5C 598.69,41.5533 599.357,43.8866 599.5,46.5C 599.165,50.5067 598.832,54.5067 598.5,58.5C 595.595,67.5648 591.929,76.2314 587.5,84.5C 583.167,84.5 578.833,84.5 574.5,84.5C 574.645,63.6442 564.312,52.3109 543.5,50.5C 536.274,50.1514 529.274,49.1514 522.5,47.5C 529.043,46.6242 533.043,42.9576 534.5,36.5C 537.467,38.2316 540.634,39.5649 544,40.5C 544.667,52.5 545.333,52.5 546,40.5C 547.699,39.5939 549.533,39.2606 551.5,39.5C 555.381,49.5757 561.215,50.909 569,43.5C 571.078,35.3311 567.911,30.6645 559.5,29.5C 560.792,18.5983 555.959,11.9317 545,9.5C 535.59,10.7428 530.424,16.0761 529.5,25.5C 521.134,22.0109 514.968,24.3443 511,32.5C 510.55,40.2668 514.05,45.2668 521.5,47.5C 511.554,49.4753 501.221,50.1419 490.5,49.5C 484.985,43.8367 479.818,44.1701 475,50.5C 473.487,53.5266 471.987,56.5266 470.5,59.5C 468.374,58.2952 466.207,58.2952 464,59.5C 462.289,59.5607 460.956,58.8941 460,57.5C 460.019,59.1075 460.185,60.7741 460.5,62.5C 456.102,62.7059 451.768,62.3726 447.5,61.5C 445.785,45.7408 452.118,34.9074 466.5,29C 453.632,29.8771 445.799,36.7104 443,49.5C 441.925,53.77 441.425,58.1033 441.5,62.5C 439.292,63.8936 437.792,65.8936 437,68.5C 435.456,74.051 433.622,79.3844 431.5,84.5C 323.166,84.3333 214.833,84.5 106.5,85C 96.0615,85.314 86.3948,88.1474 77.5,93.5C 77.1667,93.5 76.8333,93.5 76.5,93.5C 72.6273,91.5698 68.294,90.9031 63.5,91.5C 47.2905,78.3918 40.7905,61.3918 44,40.5C 49.348,18.6526 62.848,4.9859 84.5,-0.5 Z"/></g>
<g><path style="opacity:1" fill="#5a7628" d="M 559.5,29.5 C 554.24,30.7603 551.573,34.0936 551.5,39.5C 549.533,39.2606 547.699,39.5939 546,40.5C 545.333,52.5 544.667,52.5 544,40.5C 540.634,39.5649 537.467,38.2316 534.5,36.5C 535.075,31.7616 533.408,28.0949 529.5,25.5C 530.424,16.0761 535.59,10.7428 545,9.5C 555.959,11.9317 560.792,18.5983 559.5,29.5 Z"/></g>
<g><path style="opacity:1" fill="#6a8a2a" d="M 410.5,40.5 C 408.887,41.6923 407.22,42.6923 405.5,43.5C 403.833,43.5 402.167,43.5 400.5,43.5C 400.827,53.015 400.494,62.3483 399.5,71.5C 400.139,61.7734 399.472,52.4401 397.5,43.5C 396.833,43.5 396.167,43.5 395.5,43.5C 390.668,42.6645 387.335,39.9978 385.5,35.5C 382.755,23.0747 387.589,15.408 400,12.5C 415.467,17.4039 418.967,26.7372 410.5,40.5 Z"/></g>
<g><path style="opacity:1" fill="#678b2c" d="M 529.5,25.5 C 533.408,28.0949 535.075,31.7616 534.5,36.5C 533.043,42.9576 529.043,46.6242 522.5,47.5C 522.167,47.5 521.833,47.5 521.5,47.5C 514.05,45.2668 510.55,40.2668 511,32.5C 514.968,24.3443 521.134,22.0109 529.5,25.5 Z"/></g>
<g><path style="opacity:1" fill="#f4f3f3" d="M 592.5,30.5 C 590.786,33.2128 588.453,35.2128 585.5,36.5C 584.711,36.2172 584.044,35.7172 583.5,35C 585.5,33 587.5,31 589.5,29C 592.598,26.632 593.598,27.132 592.5,30.5 Z"/></g>
<g><path style="opacity:1" fill="#678b2a" d="M 559.5,29.5 C 567.911,30.6645 571.078,35.3311 569,43.5C 561.215,50.909 555.381,49.5757 551.5,39.5C 551.573,34.0936 554.24,30.7603 559.5,29.5 Z"/></g>
<g><path style="opacity:1" fill="#cc7a46" d="M 447.5,61.5 C 447.516,63.4841 446.516,64.4841 444.5,64.5C 442.962,64.5466 441.962,63.8799 441.5,62.5C 441.425,58.1033 441.925,53.77 443,49.5C 445.799,36.7104 453.632,29.8771 466.5,29C 452.118,34.9074 445.785,45.7408 447.5,61.5 Z"/></g>
<g><path style="opacity:1" fill="#d17942" d="M 622.5,36.5 C 614.082,36.8508 605.749,37.8508 597.5,39.5C 597.5,39.1667 597.5,38.8333 597.5,38.5C 599.191,37.1363 600.858,35.803 602.5,34.5C 613.321,29.9592 624.321,29.4592 635.5,33C 638.274,34.6052 638.94,36.7719 637.5,39.5C 632.681,37.6028 627.681,36.6028 622.5,36.5 Z"/></g>
<g><path style="opacity:1" fill="#773e24" d="M 592.5,30.5 C 593.837,31.3149 594.837,32.4815 595.5,34C 597.81,34.4966 600.143,34.6633 602.5,34.5C 600.858,35.803 599.191,37.1363 597.5,38.5C 596.069,38.8807 595.236,39.8807 595,41.5C 591.612,40.1047 588.445,38.438 585.5,36.5C 588.453,35.2128 590.786,33.2128 592.5,30.5 Z"/></g>
<g><path style="opacity:1" fill="#587724" d="M 385.5,35.5 C 387.335,39.9978 390.668,42.6645 395.5,43.5C 395.548,51.7356 391.548,56.7356 383.5,58.5C 371.851,54.6649 369.518,47.8316 376.5,38C 379.206,36.0924 382.206,35.259 385.5,35.5 Z"/></g>
<g><path style="opacity:1" fill="#d8f0f6" d="M 622.5,36.5 C 635.547,48.3042 640.881,62.9708 638.5,80.5C 629.355,80.2409 621.689,76.9075 615.5,70.5C 615.559,67.3095 615.893,64.1429 616.5,61C 615.979,56.1374 613.479,52.6374 609,50.5C 608.167,53 607.333,55.5 606.5,58C 606.164,59.0299 605.497,59.5299 604.5,59.5C 602.435,59.4828 600.435,59.1495 598.5,58.5C 598.832,54.5067 599.165,50.5067 599.5,46.5C 599.357,43.8866 598.69,41.5533 597.5,39.5C 605.749,37.8508 614.082,36.8508 622.5,36.5 Z"/></g>
<g><path style="opacity:1" fill="#506826" d="M 410.5,40.5 C 415.785,40.9334 419.618,43.6001 422,48.5C 422.023,54.4896 419.023,58.1563 413,59.5C 404.88,56.9234 402.38,51.5901 405.5,43.5C 407.22,42.6923 408.887,41.6923 410.5,40.5 Z"/></g>
<g><path style="opacity:1" fill="#556e72" d="M 397.5,43.5 C 399.472,52.4401 400.139,61.7734 399.5,71.5C 398.809,62.2656 398.142,52.9322 397.5,43.5 Z"/></g>
<g><path style="opacity:1" fill="#fcf1f1" d="M 490.5,49.5 C 507.992,50.4967 525.659,50.8301 543.5,50.5C 564.312,52.3109 574.645,63.6442 574.5,84.5C 574.5,87.1667 574.5,89.8333 574.5,92.5C 573.833,92.5 573.5,92.1667 573.5,91.5C 573.666,86.1563 573.499,80.8229 573,75.5C 572.529,73.7536 571.862,72.087 571,70.5C 570.177,79.1643 569.844,87.8309 570,96.5C 571.789,99.741 573.289,103.074 574.5,106.5C 575.969,111.716 576.635,117.05 576.5,122.5C 576.5,123.833 576.5,125.167 576.5,126.5C 575.167,126.5 573.833,126.5 572.5,126.5C 572.802,123.941 572.468,121.607 571.5,119.5C 571.59,116.848 570.924,114.515 569.5,112.5C 568.231,108.946 566.231,105.946 563.5,103.5C 562.797,101.284 561.464,99.451 559.5,98C 556.778,95.6422 553.778,93.8089 550.5,92.5C 547.199,90.4155 543.532,89.0822 539.5,88.5C 533.31,88.1771 527.31,88.5104 521.5,89.5C 518.505,89.2938 515.838,89.9605 513.5,91.5C 506.967,91.9394 501.3,94.2728 496.5,98.5C 499.706,106.786 502.706,115.119 505.5,123.5C 505.5,124.5 505.5,125.5 505.5,126.5C 504.609,127.11 503.609,127.443 502.5,127.5C 501.833,126.167 501.167,124.833 500.5,123.5C 496.258,116.689 491.758,110.023 487,103.5C 484.88,102.395 482.713,102.395 480.5,103.5C 477.031,103.453 473.698,102.787 470.5,101.5C 464.294,97.0931 460.627,91.0931 459.5,83.5C 452.102,83.3655 446.102,86.1988 441.5,92C 433.939,95.0571 430.606,92.5571 431.5,84.5C 433.622,79.3844 435.456,74.051 437,68.5C 437.792,65.8936 439.292,63.8936 441.5,62.5C 441.962,63.8799 442.962,64.5466 444.5,64.5C 446.516,64.4841 447.516,63.4841 447.5,61.5C 451.768,62.3726 456.102,62.7059 460.5,62.5C 463.525,62.8769 466.525,63.0435 469.5,63C 470.337,61.9887 470.67,60.8221 470.5,59.5C 471.987,56.5266 473.487,53.5266 475,50.5C 479.818,44.1701 484.985,43.8367 490.5,49.5 Z"/></g>
<g><path style="opacity:1" fill="#85a3b2" d="M 521.5,47.5 C 521.833,47.5 522.167,47.5 522.5,47.5C 529.274,49.1514 536.274,50.1514 543.5,50.5C 525.659,50.8301 507.992,50.4967 490.5,49.5C 501.221,50.1419 511.554,49.4753 521.5,47.5 Z"/></g>
<g><path style="opacity:1" fill="#357aa4" d="M 615.5,70.5 C 609.5,75.1667 603.5,79.8333 597.5,84.5C 595.833,84.5 594.167,84.5 592.5,84.5C 592.343,83.1266 592.51,81.7932 593,80.5C 597.497,73.8432 601.33,66.8432 604.5,59.5C 605.497,59.5299 606.164,59.0299 606.5,58C 607.333,55.5 608.167,53 609,50.5C 613.479,52.6374 615.979,56.1374 616.5,61C 615.893,64.1429 615.559,67.3095 615.5,70.5 Z"/></g>
<g><path style="opacity:1" fill="#612e17" d="M 470.5,59.5 C 470.67,60.8221 470.337,61.9887 469.5,63C 466.525,63.0435 463.525,62.8769 460.5,62.5C 460.185,60.7741 460.019,59.1075 460,57.5C 460.956,58.8941 462.289,59.5607 464,59.5C 466.207,58.2952 468.374,58.2952 470.5,59.5 Z"/></g>
<g><path style="opacity:1" fill="#884c34" d="M 598.5,58.5 C 600.435,59.1495 602.435,59.4828 604.5,59.5C 601.33,66.8432 597.497,73.8432 593,80.5C 592.51,81.7932 592.343,83.1266 592.5,84.5C 591.026,85.4363 590.026,86.7697 589.5,88.5C 586.391,88.2641 583.391,88.5975 580.5,89.5C 580.423,88.2502 579.756,87.4169 578.5,87C 581.992,87.0704 584.992,86.2371 587.5,84.5C 591.929,76.2314 595.595,67.5648 598.5,58.5 Z"/></g>
<g><path style="opacity:1" fill="#4a2c20" d="M 440.5,68.5 C 441.239,68.369 441.906,68.5357 442.5,69C 441.534,70.6779 440.201,71.3446 438.5,71C 439.381,70.2917 440.047,69.4584 440.5,68.5 Z"/></g>
<g><path style="opacity:1" fill="#d17a42" d="M 615.5,70.5 C 621.689,76.9075 629.355,80.2409 638.5,80.5C 638.5,81.5 638.5,82.5 638.5,83.5C 637.51,87.3855 636.51,91.3855 635.5,95.5C 632.164,97.0513 628.831,98.3846 625.5,99.5C 618.367,99.892 611.367,99.2254 604.5,97.5C 600.155,96.1625 595.822,94.8292 591.5,93.5C 591.389,92.8826 591.056,92.3826 590.5,92C 593.039,89.6303 595.372,87.1303 597.5,84.5C 603.5,79.8333 609.5,75.1667 615.5,70.5 Z"/></g>
<g><path style="opacity:0.997" fill="#5d896c" d="M 470.5,101.5 C 464.421,109.384 462.088,118.384 463.5,128.5C 464.5,128.5 465.5,128.5 466.5,128.5C 466.5,129.5 466.5,130.5 466.5,131.5C 477.833,131.5 489.167,131.5 500.5,131.5C 500.435,131.938 500.601,132.272 501,132.5C 502.113,131.695 503.279,131.028 504.5,130.5C 524.996,131.663 545.663,131.829 566.5,131C 567.982,128.408 567.648,126.075 565.5,124C 557.507,123.5 549.507,123.334 541.5,123.5C 544.649,118.367 547.315,113.034 549.5,107.5C 553.987,108.992 558.32,110.658 562.5,112.5C 559.813,112.336 557.146,112.503 554.5,113C 551.833,115 551.833,117 554.5,119C 560.157,119.499 565.824,119.666 571.5,119.5C 572.468,121.607 572.802,123.941 572.5,126.5C 573.833,126.5 575.167,126.5 576.5,126.5C 576.5,125.167 576.5,123.833 576.5,122.5C 578.907,123.794 581.074,125.461 583,127.5C 582.509,124.819 581.676,122.153 580.5,119.5C 589.5,119.5 598.5,119.5 607.5,119.5C 608.479,120.765 609.479,122.099 610.5,123.5C 610.145,124.522 609.478,125.189 608.5,125.5C 604.019,124.352 599.352,124.185 594.5,125C 591.833,127 591.833,129 594.5,131C 612.833,131.667 631.167,131.667 649.5,131C 652.167,129 652.167,127 649.5,125C 638.172,124.5 626.838,124.333 615.5,124.5C 613.953,123.232 612.953,121.565 612.5,119.5C 618.509,119.666 624.509,119.499 630.5,119C 633.167,117 633.167,115 630.5,113C 623.842,112.5 617.175,112.334 610.5,112.5C 608.761,107.362 606.761,102.362 604.5,97.5C 611.367,99.2254 618.367,99.892 625.5,99.5C 637.748,106.964 650.415,113.964 663.5,120.5C 664.833,121.167 664.833,121.833 663.5,122.5C 661.833,123.333 660.167,124.167 658.5,125C 661.5,125.667 664.5,125.667 667.5,125C 669.82,123.512 669.987,121.679 668,119.5C 660.795,112.627 653.295,106.127 645.5,100C 642.107,98.38 638.774,96.88 635.5,95.5C 636.51,91.3855 637.51,87.3855 638.5,83.5C 657.326,84.497 676.326,84.8303 695.5,84.5C 694.88,90.9262 695.547,96.9262 697.5,102.5C 697.5,129.167 697.5,155.833 697.5,182.5C 497.5,182.5 297.5,182.5 97.5,182.5C 77.6681,178.839 63.5014,167.839 55,149.5C 53.0382,144.344 52.2049,139.011 52.5,133.5C 53.5862,133.38 54.2528,132.713 54.5,131.5C 55.6039,121.297 59.4372,112.297 66,104.5C 70.2703,101.147 74.1037,97.4806 77.5,93.5C 86.3948,88.1474 96.0615,85.314 106.5,85C 214.833,84.5 323.166,84.3333 431.5,84.5C 430.606,92.5571 433.939,95.0571 441.5,92C 446.102,86.1988 452.102,83.3655 459.5,83.5C 460.627,91.0931 464.294,97.0931 470.5,101.5 Z"/></g>
<g><path style="opacity:1" fill="#65886b" d="M 573.5,91.5 C 571.762,93.1195 571.262,95.1195 572,97.5C 573.372,96.0899 574.205,94.4233 574.5,92.5C 574.5,89.8333 574.5,87.1667 574.5,84.5C 578.833,84.5 583.167,84.5 587.5,84.5C 584.992,86.2371 581.992,87.0704 578.5,87C 579.756,87.4169 580.423,88.2502 580.5,89.5C 579.471,94.5655 578.137,99.5655 576.5,104.5C 576.253,105.713 575.586,106.38 574.5,106.5C 573.289,103.074 571.789,99.741 570,96.5C 569.844,87.8309 570.177,79.1643 571,70.5C 571.862,72.087 572.529,73.7536 573,75.5C 573.499,80.8229 573.666,86.1563 573.5,91.5 Z"/></g>
<g><path style="opacity:1" fill="#64896c" d="M 521.5,89.5 C 527.31,88.5104 533.31,88.1771 539.5,88.5C 540.75,91.006 541.416,93.6726 541.5,96.5C 534.694,94.5648 528.028,92.2315 521.5,89.5 Z"/></g>
<g><path style="opacity:1" fill="#330d0b" d="M 589.5,88.5 C 590.239,88.369 590.906,88.5357 591.5,89C 589.595,90.87 587.428,92.37 585,93.5C 583.926,99.9538 582.426,106.287 580.5,112.5C 579.314,114.874 579.314,117.208 580.5,119.5C 581.676,122.153 582.509,124.819 583,127.5C 581.074,125.461 578.907,123.794 576.5,122.5C 576.635,117.05 575.969,111.716 574.5,106.5C 575.586,106.38 576.253,105.713 576.5,104.5C 578.137,99.5655 579.471,94.5655 580.5,89.5C 583.391,88.5975 586.391,88.2641 589.5,88.5 Z"/></g>
<g><path style="opacity:1" fill="#4d1d18" d="M 521.5,89.5 C 528.028,92.2315 534.694,94.5648 541.5,96.5C 542.388,99.0545 542.721,101.721 542.5,104.5C 532.715,100.441 523.048,96.1077 513.5,91.5C 515.838,89.9605 518.505,89.2938 521.5,89.5 Z"/></g>
<g><path style="opacity:1" fill="#dacccb" d="M 539.5,88.5 C 543.532,89.0822 547.199,90.4155 550.5,92.5C 550.5,95.1667 550.5,97.8333 550.5,100.5C 550.326,102.861 549.993,105.194 549.5,107.5C 547.315,113.034 544.649,118.367 541.5,123.5C 540.662,123.842 540.328,124.508 540.5,125.5C 539.167,125.5 537.833,125.5 536.5,125.5C 536.833,124.833 537.167,124.167 537.5,123.5C 540.255,117.481 541.922,111.147 542.5,104.5C 542.721,101.721 542.388,99.0545 541.5,96.5C 541.416,93.6726 540.75,91.006 539.5,88.5 Z"/></g>
<g><path style="opacity:1" fill="#eec317" d="M 63.5,91.5 C 68.294,90.9031 72.6273,91.5698 76.5,93.5C 62.748,102.927 54.748,115.927 52.5,132.5C 39.3396,131.669 26.0063,131.169 12.5,131C 6.31536,128.647 1.98203,124.48 -0.5,118.5C -0.5,114.167 -0.5,109.833 -0.5,105.5C 1.98203,99.5198 6.31536,95.3531 12.5,93C 29.6716,92.8316 46.6716,92.3316 63.5,91.5 Z"/></g>
<g><path style="opacity:1" fill="#618a6b" d="M 513.5,91.5 C 523.048,96.1077 532.715,100.441 542.5,104.5C 541.922,111.147 540.255,117.481 537.5,123.5C 526.833,123.5 516.167,123.5 505.5,123.5C 502.706,115.119 499.706,106.786 496.5,98.5C 501.3,94.2728 506.967,91.9394 513.5,91.5 Z"/></g>
<g><path style="opacity:1" fill="#411b1a" d="M 573.5,91.5 C 573.5,92.1667 573.833,92.5 574.5,92.5C 574.205,94.4233 573.372,96.0899 572,97.5C 571.262,95.1195 571.762,93.1195 573.5,91.5 Z"/></g>
<g><path style="opacity:1" fill="#618868" d="M 592.5,84.5 C 594.167,84.5 595.833,84.5 597.5,84.5C 595.372,87.1303 593.039,89.6303 590.5,92C 591.056,92.3826 591.389,92.8826 591.5,93.5C 595.5,99.8333 599.5,106.167 603.5,112.5C 595.833,112.5 588.167,112.5 580.5,112.5C 582.426,106.287 583.926,99.9538 585,93.5C 587.428,92.37 589.595,90.87 591.5,89C 590.906,88.5357 590.239,88.369 589.5,88.5C 590.026,86.7697 591.026,85.4363 592.5,84.5 Z"/></g>
<g><path style="opacity:1" fill="#96a14c" d="M 76.5,93.5 C 76.8333,93.5 77.1667,93.5 77.5,93.5C 74.1037,97.4806 70.2703,101.147 66,104.5C 59.4372,112.297 55.6039,121.297 54.5,131.5C 54.2528,132.713 53.5862,133.38 52.5,133.5C 52.5,133.167 52.5,132.833 52.5,132.5C 54.748,115.927 62.748,102.927 76.5,93.5 Z"/></g>
<g><path style="opacity:1" fill="#8e4d30" d="M 591.5,93.5 C 595.822,94.8292 600.155,96.1625 604.5,97.5C 606.761,102.362 608.761,107.362 610.5,112.5C 611.167,114.833 611.833,117.167 612.5,119.5C 612.953,121.565 613.953,123.232 615.5,124.5C 615.5,125.5 615.5,126.5 615.5,127.5C 611.289,129.078 606.956,129.578 602.5,129C 604.727,128.059 606.727,126.892 608.5,125.5C 609.478,125.189 610.145,124.522 610.5,123.5C 609.479,122.099 608.479,120.765 607.5,119.5C 606.431,117.031 605.098,114.698 603.5,112.5C 599.5,106.167 595.5,99.8333 591.5,93.5 Z"/></g>
<g><path style="opacity:1" fill="#6c8764" d="M 550.5,92.5 C 553.778,93.8089 556.778,95.6422 559.5,98C 561.464,99.451 562.797,101.284 563.5,103.5C 559.275,102.121 554.942,101.121 550.5,100.5C 550.5,97.8333 550.5,95.1667 550.5,92.5 Z"/></g>
<g><path style="opacity:1" fill="#8d4c2e" d="M 635.5,95.5 C 638.774,96.88 642.107,98.38 645.5,100C 653.295,106.127 660.795,112.627 668,119.5C 669.987,121.679 669.82,123.512 667.5,125C 664.5,125.667 661.5,125.667 658.5,125C 660.167,124.167 661.833,123.333 663.5,122.5C 664.833,121.833 664.833,121.167 663.5,120.5C 650.415,113.964 637.748,106.964 625.5,99.5C 628.831,98.3846 632.164,97.0513 635.5,95.5 Z"/></g>
<g><path style="opacity:1" fill="#4d1d18" d="M 550.5,100.5 C 554.942,101.121 559.275,102.121 563.5,103.5C 566.231,105.946 568.231,108.946 569.5,112.5C 567.338,113.417 565.005,113.417 562.5,112.5C 558.32,110.658 553.987,108.992 549.5,107.5C 549.993,105.194 550.326,102.861 550.5,100.5 Z"/></g>
<g><path style="opacity:1" fill="#d9cbca" d="M 470.5,101.5 C 473.698,102.787 477.031,103.453 480.5,103.5C 472.68,107.785 468.347,114.452 467.5,123.5C 466.549,124.919 466.216,126.585 466.5,128.5C 465.5,128.5 464.5,128.5 463.5,128.5C 462.088,118.384 464.421,109.384 470.5,101.5 Z"/></g>
<g><path style="opacity:1" fill="#618c6f" d="M 500.5,123.5 C 489.5,123.5 478.5,123.5 467.5,123.5C 468.347,114.452 472.68,107.785 480.5,103.5C 482.713,102.395 484.88,102.395 487,103.5C 491.758,110.023 496.258,116.689 500.5,123.5 Z"/></g>
<g><path style="opacity:1" fill="#78ad89" d="M 562.5,112.5 C 565.005,113.417 567.338,113.417 569.5,112.5C 570.924,114.515 571.59,116.848 571.5,119.5C 565.824,119.666 560.157,119.499 554.5,119C 551.833,117 551.833,115 554.5,113C 557.146,112.503 559.813,112.336 562.5,112.5 Z"/></g>
<g><path style="opacity:1" fill="#76ac88" d="M 580.5,112.5 C 588.167,112.5 595.833,112.5 603.5,112.5C 605.098,114.698 606.431,117.031 607.5,119.5C 598.5,119.5 589.5,119.5 580.5,119.5C 579.314,117.208 579.314,114.874 580.5,112.5 Z"/></g>
<g><path style="opacity:1" fill="#76ad89" d="M 610.5,112.5 C 617.175,112.334 623.842,112.5 630.5,113C 633.167,115 633.167,117 630.5,119C 624.509,119.499 618.509,119.666 612.5,119.5C 611.833,117.167 611.167,114.833 610.5,112.5 Z"/></g>
<g><path style="opacity:1" fill="#79af8b" d="M 467.5,123.5 C 478.5,123.5 489.5,123.5 500.5,123.5C 501.167,124.833 501.833,126.167 502.5,127.5C 501.833,128.833 501.167,130.167 500.5,131.5C 489.167,131.5 477.833,131.5 466.5,131.5C 466.5,130.5 466.5,129.5 466.5,128.5C 466.216,126.585 466.549,124.919 467.5,123.5 Z"/></g>
<g><path style="opacity:1" fill="#78af8a" d="M 505.5,123.5 C 516.167,123.5 526.833,123.5 537.5,123.5C 537.167,124.167 536.833,124.833 536.5,125.5C 536.196,126.15 535.863,126.817 535.5,127.5C 537.045,128.452 538.712,128.785 540.5,128.5C 540.5,127.5 540.5,126.5 540.5,125.5C 540.328,124.508 540.662,123.842 541.5,123.5C 549.507,123.334 557.507,123.5 565.5,124C 567.648,126.075 567.982,128.408 566.5,131C 545.663,131.829 524.996,131.663 504.5,130.5C 506.519,129.462 506.853,128.128 505.5,126.5C 505.5,125.5 505.5,124.5 505.5,123.5 Z"/></g>
<g><path style="opacity:1" fill="#76ad88" d="M 608.5,125.5 C 606.727,126.892 604.727,128.059 602.5,129C 606.956,129.578 611.289,129.078 615.5,127.5C 615.5,126.5 615.5,125.5 615.5,124.5C 626.838,124.333 638.172,124.5 649.5,125C 652.167,127 652.167,129 649.5,131C 631.167,131.667 612.833,131.667 594.5,131C 591.833,129 591.833,127 594.5,125C 599.352,124.185 604.019,124.352 608.5,125.5 Z"/></g>
<g><path style="opacity:1" fill="#421d1c" d="M 505.5,126.5 C 506.853,128.128 506.519,129.462 504.5,130.5C 503.279,131.028 502.113,131.695 501,132.5C 500.601,132.272 500.435,131.938 500.5,131.5C 501.167,130.167 501.833,128.833 502.5,127.5C 503.609,127.443 504.609,127.11 505.5,126.5 Z"/></g>
<g><path style="opacity:1" fill="#4f2f2b" d="M 536.5,125.5 C 537.833,125.5 539.167,125.5 540.5,125.5C 540.5,126.5 540.5,127.5 540.5,128.5C 538.712,128.785 537.045,128.452 535.5,127.5C 535.863,126.817 536.196,126.15 536.5,125.5 Z"/></g>
<g><path style="opacity:1" fill="#340c0d" d="M 571.5,127.5 C 572.978,127.238 574.311,127.571 575.5,128.5C 574.833,128.833 574.167,129.167 573.5,129.5C 572.287,129.253 571.62,128.586 571.5,127.5 Z"/></g>
<g><path style="opacity:1" fill="#78b08b" d="M 633.5,141.5 C 633.5,140.833 633.167,140.5 632.5,140.5C 632.286,138.856 632.62,137.356 633.5,136C 649.167,135.333 664.833,135.333 680.5,136C 681.833,137.667 681.833,139.333 680.5,141C 664.837,141.5 649.17,141.667 633.5,141.5 Z"/></g>
<g><path style="opacity:1" fill="#76ae89" d="M 604.5,143.5 C 604.167,143.5 603.833,143.5 603.5,143.5C 600.167,143.5 596.833,143.5 593.5,143.5C 593.167,143.5 592.833,143.5 592.5,143.5C 590.5,143.5 588.5,143.5 586.5,143.5C 586.167,143.5 585.833,143.5 585.5,143.5C 582.833,143.5 580.167,143.5 577.5,143.5C 577.167,143.5 576.833,143.5 576.5,143.5C 573.167,143.5 569.833,143.5 566.5,143.5C 566.167,143.5 565.833,143.5 565.5,143.5C 563.5,143.5 561.5,143.5 559.5,143.5C 559.167,143.5 558.833,143.5 558.5,143.5C 555.833,143.5 553.167,143.5 550.5,143.5C 550.167,143.5 549.833,143.5 549.5,143.5C 546.167,143.5 542.833,143.5 539.5,143.5C 539.167,143.5 538.833,143.5 538.5,143.5C 536.5,143.5 534.5,143.5 532.5,143.5C 532.167,143.5 531.833,143.5 531.5,143.5C 528.487,142.644 527.82,140.811 529.5,138C 555.167,137.333 580.833,137.333 606.5,138C 608.18,140.811 607.513,142.644 604.5,143.5 Z"/></g>
<g><path style="opacity:1" fill="#2b633c" d="M 123.5,148.5 C 124.814,150.915 125.481,153.748 125.5,157C 126.145,165.156 126.479,173.322 126.5,181.5C 125.5,181.5 124.5,181.5 123.5,181.5C 123.5,170.5 123.5,159.5 123.5,148.5 Z"/></g>
<g><path style="opacity:1" fill="#2b633c" d="M 129.5,148.5 C 130.814,150.915 131.481,153.748 131.5,157C 132.145,165.156 132.479,173.322 132.5,181.5C 131.5,181.5 130.5,181.5 129.5,181.5C 129.5,170.5 129.5,159.5 129.5,148.5 Z"/></g>
<g><path style="opacity:1" fill="#2b633c" d="M 140.5,148.5 C 141.814,150.915 142.481,153.748 142.5,157C 143.145,165.156 143.479,173.322 143.5,181.5C 142.5,181.5 141.5,181.5 140.5,181.5C 140.5,170.5 140.5,159.5 140.5,148.5 Z"/></g>
<g><path style="opacity:1" fill="#2b633c" d="M 150.5,148.5 C 151.814,150.915 152.481,153.748 152.5,157C 153.145,165.156 153.479,173.322 153.5,181.5C 152.5,181.5 151.5,181.5 150.5,181.5C 150.5,170.5 150.5,159.5 150.5,148.5 Z"/></g>
<g><path style="opacity:1" fill="#2b633c" d="M 157.5,148.5 C 158.814,150.915 159.481,153.748 159.5,157C 160.145,165.156 160.479,173.322 160.5,181.5C 159.5,181.5 158.5,181.5 157.5,181.5C 157.5,170.5 157.5,159.5 157.5,148.5 Z"/></g>
<g><path style="opacity:1" fill="#2b633c" d="M 168.5,148.5 C 169.814,150.915 170.481,153.748 170.5,157C 171.145,165.156 171.479,173.322 171.5,181.5C 170.5,181.5 169.5,181.5 168.5,181.5C 168.5,170.5 168.5,159.5 168.5,148.5 Z"/></g>
<g><path style="opacity:1" fill="#2b633c" d="M 178.5,148.5 C 179.814,150.915 180.481,153.748 180.5,157C 181.145,165.156 181.479,173.322 181.5,181.5C 180.5,181.5 179.5,181.5 178.5,181.5C 178.5,170.5 178.5,159.5 178.5,148.5 Z"/></g>
<g><path style="opacity:1" fill="#2b633c" d="M 185.5,148.5 C 186.814,150.915 187.481,153.748 187.5,157C 188.145,165.156 188.479,173.322 188.5,181.5C 187.5,181.5 186.5,181.5 185.5,181.5C 185.5,170.5 185.5,159.5 185.5,148.5 Z"/></g>
<g><path style="opacity:1" fill="#2b633c" d="M 196.5,148.5 C 197.814,150.915 198.481,153.748 198.5,157C 199.145,165.156 199.479,173.322 199.5,181.5C 198.5,181.5 197.5,181.5 196.5,181.5C 196.5,170.5 196.5,159.5 196.5,148.5 Z"/></g>
<g><path style="opacity:1" fill="#2b633c" d="M 206.5,148.5 C 207.814,150.915 208.481,153.748 208.5,157C 209.145,165.156 209.479,173.322 209.5,181.5C 208.5,181.5 207.5,181.5 206.5,181.5C 206.5,170.5 206.5,159.5 206.5,148.5 Z"/></g>
<g><path style="opacity:1" fill="#2b633c" d="M 213.5,148.5 C 214.814,150.915 215.481,153.748 215.5,157C 216.145,165.156 216.479,173.322 216.5,181.5C 215.5,181.5 214.5,181.5 213.5,181.5C 213.5,170.5 213.5,159.5 213.5,148.5 Z"/></g>
<g><path style="opacity:1" fill="#2b633c" d="M 224.5,148.5 C 225.814,150.915 226.481,153.748 226.5,157C 227.145,165.156 227.479,173.322 227.5,181.5C 226.5,181.5 225.5,181.5 224.5,181.5C 224.5,170.5 224.5,159.5 224.5,148.5 Z"/></g>
<g><path style="opacity:1" fill="#2b633c" d="M 233.5,148.5 C 234.814,150.915 235.481,153.748 235.5,157C 236.145,165.156 236.479,173.322 236.5,181.5C 235.5,181.5 234.5,181.5 233.5,181.5C 233.5,170.5 233.5,159.5 233.5,148.5 Z"/></g>
<g><path style="opacity:1" fill="#2b633c" d="M 240.5,148.5 C 241.814,150.915 242.481,153.748 242.5,157C 243.145,165.156 243.479,173.322 243.5,181.5C 242.5,181.5 241.5,181.5 240.5,181.5C 240.5,170.5 240.5,159.5 240.5,148.5 Z"/></g>
<g><path style="opacity:1" fill="#2b633c" d="M 251.5,148.5 C 252.814,150.915 253.481,153.748 253.5,157C 254.145,165.156 254.479,173.322 254.5,181.5C 253.5,181.5 252.5,181.5 251.5,181.5C 251.5,170.5 251.5,159.5 251.5,148.5 Z"/></g>
<g><path style="opacity:1" fill="#2b633c" d="M 260.5,148.5 C 261.814,150.915 262.481,153.748 262.5,157C 263.145,165.156 263.479,173.322 263.5,181.5C 262.5,181.5 261.5,181.5 260.5,181.5C 260.5,170.5 260.5,159.5 260.5,148.5 Z"/></g>
<g><path style="opacity:1" fill="#2b633c" d="M 267.5,148.5 C 268.814,150.915 269.481,153.748 269.5,157C 270.145,165.156 270.479,173.322 270.5,181.5C 269.5,181.5 268.5,181.5 267.5,181.5C 267.5,170.5 267.5,159.5 267.5,148.5 Z"/></g>
<g><path style="opacity:1" fill="#2b633c" d="M 278.5,148.5 C 279.814,150.915 280.481,153.748 280.5,157C 281.145,165.156 281.479,173.322 281.5,181.5C 280.5,181.5 279.5,181.5 278.5,181.5C 278.5,170.5 278.5,159.5 278.5,148.5 Z"/></g>
<g><path style="opacity:1" fill="#2b633c" d="M 288.5,148.5 C 289.814,150.915 290.481,153.748 290.5,157C 291.145,165.156 291.479,173.322 291.5,181.5C 290.5,181.5 289.5,181.5 288.5,181.5C 288.5,170.5 288.5,159.5 288.5,148.5 Z"/></g>
<g><path style="opacity:1" fill="#2b633c" d="M 296.5,148.5 C 297.814,150.915 298.481,153.748 298.5,157C 299.145,165.156 299.479,173.322 299.5,181.5C 298.5,181.5 297.5,181.5 296.5,181.5C 296.5,170.5 296.5,159.5 296.5,148.5 Z"/></g>
<g><path style="opacity:1" fill="#2b633c" d="M 307.5,148.5 C 308.814,150.915 309.481,153.748 309.5,157C 310.145,165.156 310.479,173.322 310.5,181.5C 309.5,181.5 308.5,181.5 307.5,181.5C 307.5,170.5 307.5,159.5 307.5,148.5 Z"/></g>
<g><path style="opacity:1" fill="#2b633c" d="M 316.5,148.5 C 317.814,150.915 318.481,153.748 318.5,157C 319.145,165.156 319.479,173.322 319.5,181.5C 318.5,181.5 317.5,181.5 316.5,181.5C 316.5,170.5 316.5,159.5 316.5,148.5 Z"/></g>
<g><path style="opacity:1" fill="#2b633c" d="M 322.5,148.5 C 323.814,150.915 324.481,153.748 324.5,157C 325.145,165.156 325.479,173.322 325.5,181.5C 324.5,181.5 323.5,181.5 322.5,181.5C 322.5,170.5 322.5,159.5 322.5,148.5 Z"/></g>
<g><path style="opacity:1" fill="#2b633c" d="M 333.5,148.5 C 334.814,150.915 335.481,153.748 335.5,157C 336.145,165.156 336.479,173.322 336.5,181.5C 335.5,181.5 334.5,181.5 333.5,181.5C 333.5,170.5 333.5,159.5 333.5,148.5 Z"/></g>
<g><path style="opacity:1" fill="#2b633c" d="M 343.5,148.5 C 344.814,150.915 345.481,153.748 345.5,157C 346.145,165.156 346.479,173.322 346.5,181.5C 345.5,181.5 344.5,181.5 343.5,181.5C 343.5,170.5 343.5,159.5 343.5,148.5 Z"/></g>
<g><path style="opacity:1" fill="#2b633c" d="M 349.5,148.5 C 350.814,150.915 351.481,153.748 351.5,157C 352.145,165.156 352.479,173.322 352.5,181.5C 351.5,181.5 350.5,181.5 349.5,181.5C 349.5,170.5 349.5,159.5 349.5,148.5 Z"/></g>
<g><path style="opacity:1" fill="#2b633c" d="M 360.5,148.5 C 361.814,150.915 362.481,153.748 362.5,157C 363.145,165.156 363.479,173.322 363.5,181.5C 362.5,181.5 361.5,181.5 360.5,181.5C 360.5,170.5 360.5,159.5 360.5,148.5 Z"/></g>
<g><path style="opacity:1" fill="#2b633c" d="M 370.5,148.5 C 371.814,150.915 372.481,153.748 372.5,157C 373.145,165.156 373.479,173.322 373.5,181.5C 372.5,181.5 371.5,181.5 370.5,181.5C 370.5,170.5 370.5,159.5 370.5,148.5 Z"/></g>
<g><path style="opacity:1" fill="#2b633c" d="M 383.5,148.5 C 384.814,150.915 385.481,153.748 385.5,157C 386.145,165.156 386.479,173.322 386.5,181.5C 385.5,181.5 384.5,181.5 383.5,181.5C 383.5,170.5 383.5,159.5 383.5,148.5 Z"/></g>
<g><path style="opacity:1" fill="#2b633c" d="M 393.5,148.5 C 394.814,150.915 395.481,153.748 395.5,157C 396.145,165.156 396.479,173.322 396.5,181.5C 395.5,181.5 394.5,181.5 393.5,181.5C 393.5,170.5 393.5,159.5 393.5,148.5 Z"/></g>
<g><path style="opacity:1" fill="#2b633c" d="M 400.5,148.5 C 401.814,150.915 402.481,153.748 402.5,157C 403.145,165.156 403.479,173.322 403.5,181.5C 402.5,181.5 401.5,181.5 400.5,181.5C 400.5,170.5 400.5,159.5 400.5,148.5 Z"/></g>
<g><path style="opacity:1" fill="#2b633c" d="M 411.5,148.5 C 412.814,150.915 413.481,153.748 413.5,157C 414.145,165.156 414.479,173.322 414.5,181.5C 413.5,181.5 412.5,181.5 411.5,181.5C 411.5,170.5 411.5,159.5 411.5,148.5 Z"/></g>
<g><path style="opacity:1" fill="#2b633c" d="M 420.5,148.5 C 421.814,150.915 422.481,153.748 422.5,157C 423.145,165.156 423.479,173.322 423.5,181.5C 422.5,181.5 421.5,181.5 420.5,181.5C 420.5,170.5 420.5,159.5 420.5,148.5 Z"/></g>
<g><path style="opacity:1" fill="#2b633c" d="M 426.5,148.5 C 427.814,150.915 428.481,153.748 428.5,157C 429.145,165.156 429.479,173.322 429.5,181.5C 428.5,181.5 427.5,181.5 426.5,181.5C 426.5,170.5 426.5,159.5 426.5,148.5 Z"/></g>
<g><path style="opacity:1" fill="#2b633c" d="M 437.5,148.5 C 438.814,150.915 439.481,153.748 439.5,157C 440.145,165.156 440.479,173.322 440.5,181.5C 439.5,181.5 438.5,181.5 437.5,181.5C 437.5,170.5 437.5,159.5 437.5,148.5 Z"/></g>
<g><path style="opacity:1" fill="#2b633c" d="M 447.5,148.5 C 448.814,150.915 449.481,153.748 449.5,157C 450.145,165.156 450.479,173.322 450.5,181.5C 449.5,181.5 448.5,181.5 447.5,181.5C 447.5,170.5 447.5,159.5 447.5,148.5 Z"/></g>
<g><path style="opacity:1" fill="#2b633c" d="M 453.5,148.5 C 454.814,150.915 455.481,153.748 455.5,157C 456.145,165.156 456.479,173.322 456.5,181.5C 455.5,181.5 454.5,181.5 453.5,181.5C 453.5,170.5 453.5,159.5 453.5,148.5 Z"/></g>
<g><path style="opacity:1" fill="#2b633c" d="M 464.5,148.5 C 465.814,150.915 466.481,153.748 466.5,157C 467.145,165.156 467.479,173.322 467.5,181.5C 466.5,181.5 465.5,181.5 464.5,181.5C 464.5,170.5 464.5,159.5 464.5,148.5 Z"/></g>
<g><path style="opacity:1" fill="#2b633c" d="M 474.5,148.5 C 475.814,150.915 476.481,153.748 476.5,157C 477.145,165.156 477.479,173.322 477.5,181.5C 476.5,181.5 475.5,181.5 474.5,181.5C 474.5,170.5 474.5,159.5 474.5,148.5 Z"/></g>
<g><path style="opacity:1" fill="#2b633c" d="M 481.5,148.5 C 482.814,150.915 483.481,153.748 483.5,157C 484.145,165.156 484.479,173.322 484.5,181.5C 483.5,181.5 482.5,181.5 481.5,181.5C 481.5,170.5 481.5,159.5 481.5,148.5 Z"/></g>
<g><path style="opacity:1" fill="#2b633c" d="M 492.5,148.5 C 493.814,150.915 494.481,153.748 494.5,157C 495.145,165.156 495.479,173.322 495.5,181.5C 494.5,181.5 493.5,181.5 492.5,181.5C 492.5,170.5 492.5,159.5 492.5,148.5 Z"/></g>
<g><path style="opacity:1" fill="#2b633c" d="M 502.5,148.5 C 503.814,150.915 504.481,153.748 504.5,157C 505.145,165.156 505.479,173.322 505.5,181.5C 504.5,181.5 503.5,181.5 502.5,181.5C 502.5,170.5 502.5,159.5 502.5,148.5 Z"/></g>
<g><path style="opacity:1" fill="#2b633c" d="M 509.5,148.5 C 510.814,150.915 511.481,153.748 511.5,157C 512.145,165.156 512.479,173.322 512.5,181.5C 511.5,181.5 510.5,181.5 509.5,181.5C 509.5,170.5 509.5,159.5 509.5,148.5 Z"/></g>
<g><path style="opacity:1" fill="#2b633c" d="M 520.5,148.5 C 521.814,150.915 522.481,153.748 522.5,157C 523.145,165.156 523.479,173.322 523.5,181.5C 522.5,181.5 521.5,181.5 520.5,181.5C 520.5,170.5 520.5,159.5 520.5,148.5 Z"/></g>
<g><path style="opacity:1" fill="#2d643e" d="M 531.5,143.5 C 531.833,143.5 532.167,143.5 532.5,143.5C 532.652,156.173 532.985,168.839 533.5,181.5C 532.5,181.5 531.5,181.5 530.5,181.5C 530.268,168.808 530.602,156.141 531.5,143.5 Z"/></g>
<g><path style="opacity:1" fill="#2d643e" d="M 538.5,143.5 C 538.833,143.5 539.167,143.5 539.5,143.5C 539.652,156.173 539.985,168.839 540.5,181.5C 539.5,181.5 538.5,181.5 537.5,181.5C 537.268,168.808 537.602,156.141 538.5,143.5 Z"/></g>
<g><path style="opacity:1" fill="#2d643e" d="M 549.5,143.5 C 549.833,143.5 550.167,143.5 550.5,143.5C 550.652,156.173 550.985,168.839 551.5,181.5C 550.5,181.5 549.5,181.5 548.5,181.5C 548.268,168.808 548.602,156.141 549.5,143.5 Z"/></g>
<g><path style="opacity:1" fill="#2d643e" d="M 558.5,143.5 C 558.833,143.5 559.167,143.5 559.5,143.5C 559.652,156.173 559.985,168.839 560.5,181.5C 559.5,181.5 558.5,181.5 557.5,181.5C 557.268,168.808 557.602,156.141 558.5,143.5 Z"/></g>
<g><path style="opacity:1" fill="#2d643e" d="M 565.5,143.5 C 565.833,143.5 566.167,143.5 566.5,143.5C 566.652,156.173 566.985,168.839 567.5,181.5C 566.5,181.5 565.5,181.5 564.5,181.5C 564.268,168.808 564.602,156.141 565.5,143.5 Z"/></g>
<g><path style="opacity:1" fill="#2d643e" d="M 576.5,143.5 C 576.833,143.5 577.167,143.5 577.5,143.5C 577.652,156.173 577.985,168.839 578.5,181.5C 577.5,181.5 576.5,181.5 575.5,181.5C 575.268,168.808 575.602,156.141 576.5,143.5 Z"/></g>
<g><path style="opacity:1" fill="#2d643e" d="M 585.5,143.5 C 585.833,143.5 586.167,143.5 586.5,143.5C 586.652,156.173 586.985,168.839 587.5,181.5C 586.5,181.5 585.5,181.5 584.5,181.5C 584.268,168.808 584.602,156.141 585.5,143.5 Z"/></g>
<g><path style="opacity:1" fill="#2d643e" d="M 592.5,143.5 C 592.833,143.5 593.167,143.5 593.5,143.5C 593.652,156.173 593.985,168.839 594.5,181.5C 593.5,181.5 592.5,181.5 591.5,181.5C 591.268,168.808 591.602,156.141 592.5,143.5 Z"/></g>
<g><path style="opacity:1" fill="#2d643e" d="M 603.5,143.5 C 603.833,143.5 604.167,143.5 604.5,143.5C 604.652,156.173 604.985,168.839 605.5,181.5C 604.5,181.5 603.5,181.5 602.5,181.5C 602.268,168.808 602.602,156.141 603.5,143.5 Z"/></g>
<g><path style="opacity:1" fill="#2b633c" d="M 612.5,148.5 C 613.814,150.915 614.481,153.748 614.5,157C 615.145,165.156 615.479,173.322 615.5,181.5C 614.5,181.5 613.5,181.5 612.5,181.5C 612.5,170.5 612.5,159.5 612.5,148.5 Z"/></g>
<g><path style="opacity:1" fill="#2b633c" d="M 620.5,148.5 C 621.814,150.915 622.481,153.748 622.5,157C 623.145,165.156 623.479,173.322 623.5,181.5C 622.5,181.5 621.5,181.5 620.5,181.5C 620.5,170.5 620.5,159.5 620.5,148.5 Z"/></g>
<g><path style="opacity:1" fill="#276039" d="M 641.5,151.5 C 642.905,161.301 643.572,171.301 643.5,181.5C 642.5,181.5 641.5,181.5 640.5,181.5C 640.833,171.5 641.167,161.5 641.5,151.5 Z"/></g>
<g><path style="opacity:1" fill="#276039" d="M 647.5,151.5 C 648.905,161.301 649.572,171.301 649.5,181.5C 648.5,181.5 647.5,181.5 646.5,181.5C 646.833,171.5 647.167,161.5 647.5,151.5 Z"/></g>
<g><path style="opacity:1" fill="#276039" d="M 658.5,151.5 C 659.905,161.301 660.572,171.301 660.5,181.5C 659.5,181.5 658.5,181.5 657.5,181.5C 657.833,171.5 658.167,161.5 658.5,151.5 Z"/></g>
<g><path style="opacity:1" fill="#276039" d="M 668.5,151.5 C 669.905,161.301 670.572,171.301 670.5,181.5C 669.5,181.5 668.5,181.5 667.5,181.5C 667.833,171.5 668.167,161.5 668.5,151.5 Z"/></g>
<g><path style="opacity:1" fill="#276039" d="M 674.5,151.5 C 675.905,161.301 676.572,171.301 676.5,181.5C 675.5,181.5 674.5,181.5 673.5,181.5C 673.833,171.5 674.167,161.5 674.5,151.5 Z"/></g>
<g><path style="opacity:1" fill="#2b633c" d="M 684.5,148.5 C 685.814,150.915 686.481,153.748 686.5,157C 687.145,165.156 687.479,173.322 687.5,181.5C 686.5,181.5 685.5,181.5 684.5,181.5C 684.5,170.5 684.5,159.5 684.5,148.5 Z"/></g>
<g><path style="opacity:1" fill="#2b633c" d="M 693.5,148.5 C 694.814,150.915 695.481,153.748 695.5,157C 696.145,165.156 696.479,173.322 696.5,181.5C 695.5,181.5 694.5,181.5 693.5,181.5C 693.5,170.5 693.5,159.5 693.5,148.5 Z"/></g>
<g><path style="opacity:1" fill="#316842" d="M 632.5,140.5 C 633.167,140.5 633.5,140.833 633.5,141.5C 633.611,154.84 633.945,168.173 634.5,181.5C 633.5,181.5 632.5,181.5 631.5,181.5C 631.329,167.816 631.662,154.149 632.5,140.5 Z"/></g>
<g><path style="opacity:1" fill="#276139" d="M 135.5,156.5 C 136.601,164.65 137.268,172.983 137.5,181.5C 136.5,181.5 135.5,181.5 134.5,181.5C 134.379,173.142 134.712,164.809 135.5,156.5 Z"/></g>
<g><path style="opacity:1" fill="#276139" d="M 218.5,156.5 C 219.601,164.65 220.268,172.983 220.5,181.5C 219.5,181.5 218.5,181.5 217.5,181.5C 217.379,173.142 217.712,164.809 218.5,156.5 Z"/></g>
<g><path style="opacity:1" fill="#276139" d="M 245.5,156.5 C 246.601,164.65 247.268,172.983 247.5,181.5C 246.5,181.5 245.5,181.5 244.5,181.5C 244.379,173.142 244.712,164.809 245.5,156.5 Z"/></g>
<g><path style="opacity:1" fill="#276139" d="M 302.5,156.5 C 303.601,164.65 304.268,172.983 304.5,181.5C 303.5,181.5 302.5,181.5 301.5,181.5C 301.379,173.142 301.712,164.809 302.5,156.5 Z"/></g>
<g><path style="opacity:1" fill="#276139" d="M 328.5,156.5 C 329.601,164.65 330.268,172.983 330.5,181.5C 329.5,181.5 328.5,181.5 327.5,181.5C 327.379,173.142 327.712,164.809 328.5,156.5 Z"/></g>
<g><path style="opacity:1" fill="#276139" d="M 355.5,156.5 C 356.601,164.65 357.268,172.983 357.5,181.5C 356.5,181.5 355.5,181.5 354.5,181.5C 354.379,173.142 354.712,164.809 355.5,156.5 Z"/></g>
<g><path style="opacity:1" fill="#276139" d="M 378.5,156.5 C 379.601,164.65 380.268,172.983 380.5,181.5C 379.5,181.5 378.5,181.5 377.5,181.5C 377.379,173.142 377.712,164.809 378.5,156.5 Z"/></g>
<g><path style="opacity:1" fill="#276139" d="M 405.5,156.5 C 406.601,164.65 407.268,172.983 407.5,181.5C 406.5,181.5 405.5,181.5 404.5,181.5C 404.379,173.142 404.712,164.809 405.5,156.5 Z"/></g>
<g><path style="opacity:1" fill="#276139" d="M 432.5,156.5 C 433.601,164.65 434.268,172.983 434.5,181.5C 433.5,181.5 432.5,181.5 431.5,181.5C 431.379,173.142 431.712,164.809 432.5,156.5 Z"/></g>
<g><path style="opacity:1" fill="#276139" d="M 459.5,156.5 C 460.601,164.65 461.268,172.983 461.5,181.5C 460.5,181.5 459.5,181.5 458.5,181.5C 458.379,173.142 458.712,164.809 459.5,156.5 Z"/></g>
<g><path style="opacity:1" fill="#276139" d="M 542.5,156.5 C 543.601,164.65 544.268,172.983 544.5,181.5C 543.5,181.5 542.5,181.5 541.5,181.5C 541.379,173.142 541.712,164.809 542.5,156.5 Z"/></g>
<g><path style="opacity:1" fill="#276139" d="M 569.5,156.5 C 570.601,164.65 571.268,172.983 571.5,181.5C 570.5,181.5 569.5,181.5 568.5,181.5C 568.379,173.142 568.712,164.809 569.5,156.5 Z"/></g>
<g><path style="opacity:1" fill="#276139" d="M 626.5,156.5 C 627.601,164.65 628.268,172.983 628.5,181.5C 627.5,181.5 626.5,181.5 625.5,181.5C 625.379,173.142 625.712,164.809 626.5,156.5 Z"/></g>
<g><path style="opacity:1" fill="#276139" d="M 652.5,156.5 C 653.601,164.65 654.268,172.983 654.5,181.5C 653.5,181.5 652.5,181.5 651.5,181.5C 651.379,173.142 651.712,164.809 652.5,156.5 Z"/></g>
<g><path style="opacity:1" fill="#276139" d="M 679.5,156.5 C 680.601,164.65 681.268,172.983 681.5,181.5C 680.5,181.5 679.5,181.5 678.5,181.5C 678.379,173.142 678.712,164.809 679.5,156.5 Z"/></g>
<g><path style="opacity:1" fill="#2e6640" d="M 163.5,148.5 C 164.824,159.34 164.824,170.34 163.5,181.5C 162.315,170.497 162.315,159.497 163.5,148.5 Z"/></g>
<g><path style="opacity:1" fill="#2e6640" d="M 191.5,148.5 C 192.824,159.34 192.824,170.34 191.5,181.5C 190.315,170.497 190.315,159.497 191.5,148.5 Z"/></g>
<g><path style="opacity:1" fill="#2e6640" d="M 273.5,148.5 C 274.824,159.34 274.824,170.34 273.5,181.5C 272.315,170.497 272.315,159.497 273.5,148.5 Z"/></g>
<g><path style="opacity:1" fill="#2e6640" d="M 487.5,148.5 C 488.824,159.34 488.824,170.34 487.5,181.5C 486.315,170.497 486.315,159.497 487.5,148.5 Z"/></g>
<g><path style="opacity:1" fill="#2e6640" d="M 515.5,148.5 C 516.824,159.34 516.824,170.34 515.5,181.5C 514.315,170.497 514.315,159.497 515.5,148.5 Z"/></g>
<g><path style="opacity:1" fill="#2e6640" d="M 597.5,148.5 C 598.824,159.34 598.824,170.34 597.5,181.5C 596.315,170.497 596.315,159.497 597.5,148.5 Z"/></g>
</svg>
