<?xml version="1.0" encoding="UTF-8"?>
<!DOCTYPE svg PUBLIC "-//W3C//DTD SVG 1.1//EN" "http://www.w3.org/Graphics/SVG/1.1/DTD/svg11.dtd">
<svg xmlns="http://www.w3.org/2000/svg" version="1.1" width="699px" height="182px" style="shape-rendering:geometricPrecision; text-rendering:geometricPrecision; image-rendering:optimizeQuality; fill-rule:evenodd; clip-rule:evenodd" xmlns:xlink="http://www.w3.org/1999/xlink">
<g><path style="opacity:1" fill="#2b7ca9" d="M 85.5,-0.5 C 289.833,-0.5 494.167,-0.5 698.5,-0.5C 698.5,33.8333 698.5,68.1667 698.5,102.5C 696.544,96.588 695.877,90.2547 696.5,83.5C 687.5,83.5 678.5,83.5 669.5,83.5C 667.804,83.3146 666.471,82.4813 665.5,81C 656.506,80.5002 647.506,80.3336 638.5,80.5C 636.697,78.5187 635.03,76.352 633.5,74C 631.559,72.0972 629.226,71.2639 626.5,71.5C 626.567,67.3069 626.734,62.9736 627,58.5C 627.301,55.0258 628.134,51.6925 629.5,48.5C 627.228,45.2728 624.394,42.6062 621,40.5C 620.913,36.985 621.746,33.6517 623.5,30.5C 628.02,28.9067 632.353,26.7401 636.5,24C 638.93,21.8049 640.597,19.1382 641.5,16C 627.092,15.1851 612.759,15.3517 598.5,16.5C 597.15,13.894 595.65,13.894 594,16.5C 593.282,15.5494 592.449,15.3828 591.5,16C 592.415,19.1679 594.081,21.8345 596.5,24C 597.436,34.1672 601.436,42.8338 608.5,50C 610.65,51.4114 612.984,52.2447 615.5,52.5C 615.126,59.743 616.126,66.743 618.5,73.5C 617.659,75.3792 617.325,77.3792 617.5,79.5C 607.022,79.0637 596.689,79.0637 586.5,79.5C 586.806,76.6146 586.473,73.9479 585.5,71.5C 584.93,65.285 583.43,59.285 581,53.5C 582.917,61.9737 583.75,70.6404 583.5,79.5C 509.164,79.8333 434.83,79.5 360.5,78.5C 362.938,69.5594 363.105,60.5594 361,51.5C 360.83,60.5807 359.996,69.5807 358.5,78.5C 353.544,79.8282 348.211,80.4949 342.5,80.5C 336.755,80.4784 331.089,80.145 325.5,79.5C 320.456,79.8275 315.456,79.4941 310.5,78.5C 312.938,69.5594 313.105,60.5594 311,51.5C 310.83,60.5807 309.996,69.5807 308.5,78.5C 307.848,79.7251 306.681,80.3917 305,80.5C 303.615,80.4857 302.449,80.1524 301.5,79.5C 297.17,75.0021 293.003,70.3354 289,65.5C 290.44,70.9836 293.606,75.4836 298.5,79C 292.652,79.1728 286.985,79.6728 281.5,80.5C 280.019,77.5225 277.686,75.3558 274.5,74C 263.505,73.5002 252.505,73.3335 241.5,73.5C 242.003,68.8276 242.169,64.1609 242,59.5C 241.252,57.249 239.752,55.9156 237.5,55.5C 237.5,54.5 237.5,53.5 237.5,52.5C 238.807,50.7768 238.807,48.9435 237.5,47C 235.055,46.0902 233.722,46.9236 233.5,49.5C 233.674,51.861 234.007,54.1944 234.5,56.5C 231.78,59.9929 230.447,63.9929 230.5,68.5C 230.703,70.3904 230.037,71.8904 228.5,73C 225.618,74.6079 222.618,75.9413 219.5,77C 223.085,77.7469 226.252,76.9135 229,74.5C 229.383,75.056 229.883,75.3893 230.5,75.5C 230.433,76.9587 230.766,78.2921 231.5,79.5C 226.866,80.0717 222.532,81.4051 218.5,83.5C 217.058,82.1805 216.392,80.5138 216.5,78.5C 215.5,78.5 214.5,78.5 213.5,78.5C 213.512,81.142 212.179,82.4754 209.5,82.5C 203.926,80.5467 197.926,79.88 191.5,80.5C 191.666,73.825 191.5,67.1583 191,60.5C 188.619,59.565 186.119,59.2317 183.5,59.5C 183.5,60.8333 183.5,62.1667 183.5,63.5C 184.833,63.5 186.167,63.5 187.5,63.5C 187.5,69.1667 187.5,74.8333 187.5,80.5C 179.826,80.3336 172.159,80.5003 164.5,81C 162.548,81.3661 160.882,82.1995 159.5,83.5C 147.8,83.268 136.134,83.768 124.5,85C 116.171,87.0021 108.171,89.8354 100.5,93.5C 88.8799,91.5209 76.8799,90.8542 64.5,91.5C 48.2905,78.3918 41.7905,61.3918 45,40.5C 50.348,18.6526 63.848,4.9859 85.5,-0.5 Z"/></g>
<g><path style="opacity:1" fill="#865a0f" d="M 623.5,30.5 C 620.833,30.5 618.167,30.5 615.5,30.5C 609.918,30.1045 604.585,28.7711 599.5,26.5C 599.167,23.1667 598.833,19.8333 598.5,16.5C 612.759,15.3517 627.092,15.1851 641.5,16C 640.597,19.1382 638.93,21.8049 636.5,24C 632.353,26.7401 628.02,28.9067 623.5,30.5 Z"/></g>
<g><path style="opacity:1" fill="#32779f" d="M 599.5,26.5 C 604.585,28.7711 609.918,30.1045 615.5,30.5C 615.338,32.5273 615.505,34.5273 616,36.5C 623.559,45.745 621.392,49.5783 609.5,48C 605.942,46.1083 603.442,43.2749 602,39.5C 600.369,35.3121 599.536,30.9788 599.5,26.5 Z"/></g>
<g><path style="opacity:1" fill="#6cbc96" d="M 363.5,36.5 C 364.096,37.9354 364.096,39.602 363.5,41.5C 367.869,40.9232 371.869,41.7565 375.5,44C 372.118,44.1764 368.785,44.6764 365.5,45.5C 370.212,47.3539 372.712,50.6872 373,55.5C 368.027,52.8593 364.027,49.1927 361,44.5C 360.127,44.7355 359.293,45.0688 358.5,45.5C 356.754,49.9953 354.254,53.9953 351,57.5C 350.125,56.1268 349.625,54.6268 349.5,53C 350.748,50.5903 351.748,48.0903 352.5,45.5C 351.127,45.6567 349.793,45.49 348.5,45C 350.441,43.0972 352.774,42.2639 355.5,42.5C 353.786,36.6886 355.119,36.022 359.5,40.5C 361.279,39.6064 362.612,38.273 363.5,36.5 Z"/></g>
<g><path style="opacity:1" fill="#4c9c9f" d="M 318.5,41.5 C 321.14,41.954 323.473,43.1207 325.5,45C 321.559,44.7326 317.559,44.5659 313.5,44.5C 315.631,43.6862 317.964,43.1862 320.5,43C 319.584,42.7216 318.918,42.2216 318.5,41.5 Z"/></g>
<g><path style="opacity:1" fill="#6fc196" d="M 570.5,47.5 C 568.302,47.5912 567.969,46.9245 569.5,45.5C 571.117,44.962 572.784,44.6287 574.5,44.5C 574.5,43.5 574.5,42.5 574.5,41.5C 577.292,41.5479 579.125,40.2146 580,37.5C 580.49,38.7932 580.657,40.1266 580.5,41.5C 583.527,40.4911 586.527,40.4911 589.5,41.5C 586.914,42.48 584.247,42.8134 581.5,42.5C 581.5,43.5 581.5,44.5 581.5,45.5C 588.284,45.1046 592.117,48.1046 593,54.5C 589.249,52.7092 585.749,50.5426 582.5,48C 580.564,47.187 578.564,46.687 576.5,46.5C 576.554,51.2912 575.22,55.6245 572.5,59.5C 569.903,56.0298 569.903,52.5298 572.5,49C 572.164,47.9701 571.497,47.4701 570.5,47.5 Z"/></g>
<g><path style="opacity:1" fill="#6fc195" d="M 318.5,41.5 C 318.918,42.2216 319.584,42.7216 320.5,43C 317.964,43.1862 315.631,43.6862 313.5,44.5C 315.718,46.2083 317.884,48.2083 320,50.5C 321.187,52.0444 321.52,53.7111 321,55.5C 317.646,53.078 314.146,51.078 310.5,49.5C 310.5,48.1667 310.5,46.8333 310.5,45.5C 309.5,45.5 308.5,45.5 307.5,45.5C 306.649,50.2011 304.482,54.2011 301,57.5C 300.125,56.1268 299.625,54.6268 299.5,53C 300.748,50.5903 301.748,48.0903 302.5,45.5C 301.127,45.6567 299.793,45.49 298.5,45C 300.441,43.0972 302.774,42.2639 305.5,42.5C 303.664,36.834 304.83,36.1673 309,40.5C 310.326,39.2011 311.66,37.8678 313,36.5C 312.981,38.1075 312.815,39.7741 312.5,41.5C 314.5,41.5 316.5,41.5 318.5,41.5 Z"/></g>
<g><path style="opacity:1" fill="#0b0706" d="M 237.5,52.5 C 236.789,50.7986 235.455,49.7986 233.5,49.5C 233.722,46.9236 235.055,46.0902 237.5,47C 238.807,48.9435 238.807,50.7768 237.5,52.5 Z"/></g>
<g><path style="opacity:1" fill="#4c9ca0" d="M 569.5,45.5 C 567.969,46.9245 568.302,47.5912 570.5,47.5C 565.031,52.6604 563.864,52.3271 567,46.5C 567.671,45.7476 568.504,45.4142 569.5,45.5 Z"/></g>
<g><path style="opacity:1" fill="#6fc195" d="M 281.5,46.5 C 282.451,47.9187 282.784,49.5853 282.5,51.5C 285.425,50.361 288.425,49.861 291.5,50C 290.572,50.3879 289.905,51.0546 289.5,52C 291.016,54.0242 292.349,56.1909 293.5,58.5C 289.884,58.3334 286.884,56.5001 284.5,53C 283.552,52.5172 282.552,52.3505 281.5,52.5C 281.633,56.5991 280.467,60.2657 278,63.5C 276.302,60.6037 276.136,57.6037 277.5,54.5C 276.127,54.6567 274.793,54.49 273.5,54C 275.345,52.872 277.345,52.372 279.5,52.5C 280.167,50.5 280.833,48.5 281.5,46.5 Z"/></g>
<g><path style="opacity:1" fill="#5f3b2c" d="M 233.5,49.5 C 235.455,49.7986 236.789,50.7986 237.5,52.5C 237.5,53.5 237.5,54.5 237.5,55.5C 236.609,56.1098 235.609,56.4431 234.5,56.5C 234.007,54.1944 233.674,51.861 233.5,49.5 Z"/></g>
<g><path style="opacity:1" fill="#573629" d="M 598.5,16.5 C 598.833,19.8333 599.167,23.1667 599.5,26.5C 599.536,30.9788 600.369,35.3121 602,39.5C 603.442,43.2749 605.942,46.1083 609.5,48C 621.392,49.5783 623.559,45.745 616,36.5C 615.505,34.5273 615.338,32.5273 615.5,30.5C 618.167,30.5 620.833,30.5 623.5,30.5C 621.746,33.6517 620.913,36.985 621,40.5C 624.394,42.6062 627.228,45.2728 629.5,48.5C 628.134,51.6925 627.301,55.0258 627,58.5C 626.734,62.9736 626.567,67.3069 626.5,71.5C 623.888,72.3705 621.221,73.0372 618.5,73.5C 616.126,66.743 615.126,59.743 615.5,52.5C 612.984,52.2447 610.65,51.4114 608.5,50C 601.436,42.8338 597.436,34.1672 596.5,24C 594.081,21.8345 592.415,19.1679 591.5,16C 592.449,15.3828 593.282,15.5494 594,16.5C 595.65,13.894 597.15,13.894 598.5,16.5 Z"/></g>
<g><path style="opacity:1" fill="#6ec095" d="M 334.5,50.5 C 335.404,51.209 335.737,52.209 335.5,53.5C 336.93,53.5792 338.264,53.2458 339.5,52.5C 340.364,54.1965 341.697,55.3632 343.5,56C 342.552,56.4828 341.552,56.6495 340.5,56.5C 340.682,58.6746 341.349,60.6746 342.5,62.5C 342.167,63.1667 341.833,63.8333 341.5,64.5C 339.669,62.1743 337.835,59.8409 336,57.5C 333.101,59.0338 330.267,60.7005 327.5,62.5C 326.479,61.9984 326.312,61.3317 327,60.5C 328.264,58.393 330.097,57.393 332.5,57.5C 332.5,56.5 332.5,55.5 332.5,54.5C 331.127,54.6567 329.793,54.49 328.5,54C 330.473,53.5045 332.473,53.3379 334.5,53.5C 334.5,52.5 334.5,51.5 334.5,50.5 Z"/></g>
<g><path style="opacity:1" fill="#60ac97" d="M 599.5,54.5 C 600.158,55.3984 600.824,56.3984 601.5,57.5C 602.281,56.2634 603.281,55.2634 604.5,54.5C 605.506,54.9377 605.506,55.6043 604.5,56.5C 606.113,57.4274 607.779,58.2607 609.5,59C 608.062,59.2189 606.729,59.7189 605.5,60.5C 606.64,62.0778 607.14,63.7445 607,65.5C 605.691,63.0243 603.858,61.0243 601.5,59.5C 600.347,62.152 598.513,64.152 596,65.5C 597.285,61.5687 598.452,57.902 599.5,54.5 Z"/></g>
<g><path style="opacity:1" fill="#365c67" d="M 191.5,80.5 C 191.167,80.5 190.833,80.5 190.5,80.5C 190.666,74.1579 190.5,67.8246 190,61.5C 188.186,60.2404 186.353,60.2404 184.5,61.5C 185.689,62.4287 187.022,62.762 188.5,62.5C 188.5,68.5 188.5,74.5 188.5,80.5C 188.167,80.5 187.833,80.5 187.5,80.5C 187.5,74.8333 187.5,69.1667 187.5,63.5C 186.167,63.5 184.833,63.5 183.5,63.5C 183.5,62.1667 183.5,60.8333 183.5,59.5C 186.119,59.2317 188.619,59.565 191,60.5C 191.5,67.1583 191.666,73.825 191.5,80.5 Z"/></g>
<g><path style="opacity:1" fill="#432c05" d="M 190.5,80.5 C 189.833,80.5 189.167,80.5 188.5,80.5C 188.5,74.5 188.5,68.5 188.5,62.5C 187.022,62.762 185.689,62.4287 184.5,61.5C 186.353,60.2404 188.186,60.2404 190,61.5C 190.5,67.8246 190.666,74.1579 190.5,80.5 Z"/></g>
<g><path style="opacity:1" fill="#eeefb9" d="M 237.5,55.5 C 239.752,55.9156 241.252,57.249 242,59.5C 242.169,64.1609 242.003,68.8276 241.5,73.5C 238.379,74.7358 237.045,77.0692 237.5,80.5C 235.435,80.4828 233.435,80.1495 231.5,79.5C 230.766,78.2921 230.433,76.9587 230.5,75.5C 232.759,72.8981 235.093,70.2314 237.5,67.5C 236.833,66.1667 235.833,65.1667 234.5,64.5C 233.16,65.8665 231.827,67.1999 230.5,68.5C 230.447,63.9929 231.78,59.9929 234.5,56.5C 235.609,56.4431 236.609,56.1098 237.5,55.5 Z"/></g>
<g><path style="opacity:1" fill="#664a40" d="M 230.5,75.5 C 229.883,75.3893 229.383,75.056 229,74.5C 226.252,76.9135 223.085,77.7469 219.5,77C 222.618,75.9413 225.618,74.6079 228.5,73C 230.037,71.8904 230.703,70.3904 230.5,68.5C 231.827,67.1999 233.16,65.8665 234.5,64.5C 235.833,65.1667 236.833,66.1667 237.5,67.5C 235.093,70.2314 232.759,72.8981 230.5,75.5 Z"/></g>
<g><path style="opacity:1" fill="#51a19f" d="M 325.5,79.5 C 323.022,80.1641 320.355,80.4975 317.5,80.5C 314.231,80.3964 311.231,79.7297 308.5,78.5C 309.996,69.5807 310.83,60.5807 311,51.5C 313.105,60.5594 312.938,69.5594 310.5,78.5C 315.456,79.4941 320.456,79.8275 325.5,79.5 Z"/></g>
<g><path style="opacity:1" fill="#70c296" d="M 585.5,71.5 C 585.5,74.5 585.5,77.5 585.5,80.5C 595.833,80.5 606.167,80.5 616.5,80.5C 616.815,84.3714 616.482,88.0381 615.5,91.5C 505.167,91.5 394.833,91.5 284.5,91.5C 282.5,90.1667 280.833,88.5 279.5,86.5C 281.308,85.0821 281.975,83.0821 281.5,80.5C 288.224,80.7559 294.891,80.4226 301.5,79.5C 302.449,80.1524 303.615,80.4857 305,80.5C 306.681,80.3917 307.848,79.7251 308.5,78.5C 311.231,79.7297 314.231,80.3964 317.5,80.5C 320.355,80.4975 323.022,80.1641 325.5,79.5C 331.089,80.145 336.755,80.4784 342.5,80.5C 348.211,80.4949 353.544,79.8282 358.5,78.5C 433.62,80.4922 508.953,81.1588 584.5,80.5C 584.19,77.2869 584.523,74.2869 585.5,71.5 Z"/></g>
<g><path style="opacity:1" fill="#f2f3bb" d="M 626.5,71.5 C 629.226,71.2639 631.559,72.0972 633.5,74C 635.03,76.352 636.697,78.5187 638.5,80.5C 640.168,84.1451 641.501,87.8118 642.5,91.5C 642.5,93.5 642.5,95.5 642.5,97.5C 639.833,98.1667 637.167,98.8333 634.5,99.5C 630.6,100.43 626.6,100.763 622.5,100.5C 620.035,100.233 617.701,99.5664 615.5,98.5C 615.5,96.1667 615.5,93.8333 615.5,91.5C 616.482,88.0381 616.815,84.3714 616.5,80.5C 617.167,80.5 617.5,80.1667 617.5,79.5C 617.325,77.3792 617.659,75.3792 618.5,73.5C 621.221,73.0372 623.888,72.3705 626.5,71.5 Z"/></g>
<g><path style="opacity:1" fill="#4899a0" d="M 301.5,79.5 C 294.891,80.4226 288.224,80.7559 281.5,80.5C 286.985,79.6728 292.652,79.1728 298.5,79C 293.606,75.4836 290.44,70.9836 289,65.5C 293.003,70.3354 297.17,75.0021 301.5,79.5 Z"/></g>
<g><path style="opacity:1" fill="#b05a35" d="M 241.5,73.5 C 252.505,73.3335 263.505,73.5002 274.5,74C 277.686,75.3558 280.019,77.5225 281.5,80.5C 281.975,83.0821 281.308,85.0821 279.5,86.5C 265.57,76.4997 252.237,77.1663 239.5,88.5C 238.833,88.1667 238.167,87.8333 237.5,87.5C 237.5,85.1667 237.5,82.8333 237.5,80.5C 237.045,77.0692 238.379,74.7358 241.5,73.5 Z"/></g>
<g><path style="opacity:1" fill="#4c9da0" d="M 585.5,71.5 C 584.523,74.2869 584.19,77.2869 584.5,80.5C 508.953,81.1588 433.62,80.4922 358.5,78.5C 359.996,69.5807 360.83,60.5807 361,51.5C 363.105,60.5594 362.938,69.5594 360.5,78.5C 434.83,79.5 509.164,79.8333 583.5,79.5C 583.75,70.6404 582.917,61.9737 581,53.5C 583.43,59.285 584.93,65.285 585.5,71.5 Z"/></g>
<g><path style="opacity:1" fill="#406e85" d="M 231.5,79.5 C 233.435,80.1495 235.435,80.4828 237.5,80.5C 237.5,82.8333 237.5,85.1667 237.5,87.5C 233.167,87.5 228.833,87.5 224.5,87.5C 224.371,89.2161 224.038,90.8828 223.5,92.5C 222.857,94.0764 221.857,95.4097 220.5,96.5C 219.167,95.5 217.833,94.5 216.5,93.5C 214.909,90.2778 215.242,87.2778 217.5,84.5C 218.167,84.5 218.5,84.1667 218.5,83.5C 222.532,81.4051 226.866,80.0717 231.5,79.5 Z"/></g>
<g><path style="opacity:1" fill="#4d372f" d="M 279.5,86.5 C 280.833,88.5 282.5,90.1667 284.5,91.5C 287.16,96.1463 288.827,101.146 289.5,106.5C 289.5,108.5 289.5,110.5 289.5,112.5C 284.595,130.804 272.595,138.97 253.5,137C 243.344,133.343 236.344,126.51 232.5,116.5C 229.529,105.762 231.862,96.4287 239.5,88.5C 252.237,77.1663 265.57,76.4997 279.5,86.5 Z"/></g>
<g><path style="opacity:1" fill="#4b9ba1" d="M 585.5,71.5 C 586.473,73.9479 586.806,76.6146 586.5,79.5C 596.689,79.0637 607.022,79.0637 617.5,79.5C 617.5,80.1667 617.167,80.5 616.5,80.5C 606.167,80.5 595.833,80.5 585.5,80.5C 585.5,77.5 585.5,74.5 585.5,71.5 Z"/></g>
<g><path style="opacity:1" fill="#ca653c" d="M 187.5,80.5 C 187.833,80.5 188.167,80.5 188.5,80.5C 189.167,80.5 189.833,80.5 190.5,80.5C 190.833,80.5 191.167,80.5 191.5,80.5C 197.926,79.88 203.926,80.5467 209.5,82.5C 209.5,83.1667 209.5,83.8333 209.5,84.5C 209.5,92.8333 209.5,101.167 209.5,109.5C 209.5,109.833 209.5,110.167 209.5,110.5C 209.5,112.167 209.5,113.833 209.5,115.5C 203.5,115.5 197.5,115.5 191.5,115.5C 190.5,115.5 189.5,115.5 188.5,115.5C 187.79,107.291 183.29,102.957 175,102.5C 167.722,103.279 163.555,107.279 162.5,114.5C 160.066,113.229 158.566,111.229 158,108.5C 157.333,101.167 157.333,93.8333 158,86.5C 158.513,85.4734 159.013,84.4734 159.5,83.5C 160.882,82.1995 162.548,81.3661 164.5,81C 172.159,80.5003 179.826,80.3336 187.5,80.5 Z"/></g>
<g><path style="opacity:1" fill="#70c296" d="M 638.5,80.5 C 647.506,80.3336 656.506,80.5002 665.5,81C 666.471,82.4813 667.804,83.3146 669.5,83.5C 669.747,86.505 668.747,89.005 666.5,91C 658.507,91.4997 650.507,91.6664 642.5,91.5C 641.501,87.8118 640.168,84.1451 638.5,80.5 Z"/></g>
<g><path style="opacity:1" fill="#423d29" d="M 218.5,83.5 C 218.5,84.1667 218.167,84.5 217.5,84.5C 214.999,82.3533 212.332,82.3533 209.5,84.5C 209.5,83.8333 209.5,83.1667 209.5,82.5C 212.179,82.4754 213.512,81.142 213.5,78.5C 214.5,78.5 215.5,78.5 216.5,78.5C 216.392,80.5138 217.058,82.1805 218.5,83.5 Z"/></g>
<g><path style="opacity:0.998" fill="#5d8a6b" d="M 159.5,83.5 C 159.013,84.4734 158.513,85.4734 158,86.5C 157.333,93.8333 157.333,101.167 158,108.5C 158.566,111.229 160.066,113.229 162.5,114.5C 162.384,120.611 165.051,124.944 170.5,127.5C 172.576,135.41 177.576,140.577 185.5,143C 224.5,143.667 263.5,143.667 302.5,143C 311.531,141.467 317.198,136.3 319.5,127.5C 340.503,127.667 361.503,127.5 382.5,127C 383.833,125.667 383.833,124.333 382.5,123C 368.327,122.173 354.327,122.339 340.5,123.5C 336.733,118.151 333.066,112.651 329.5,107C 316.171,106.5 302.837,106.333 289.5,106.5C 288.827,101.146 287.16,96.1463 284.5,91.5C 394.833,91.5 505.167,91.5 615.5,91.5C 615.5,93.8333 615.5,96.1667 615.5,98.5C 614.376,105.283 613.376,111.949 612.5,118.5C 610.986,126.048 610.319,134.381 610.5,143.5C 611.5,143.5 612.5,143.5 613.5,143.5C 613.5,138.833 613.5,134.167 613.5,129.5C 614.167,128.167 614.833,126.833 615.5,125.5C 614.759,131.471 614.425,137.471 614.5,143.5C 615.5,143.5 616.5,143.5 617.5,143.5C 616.815,135.184 616.482,126.851 616.5,118.5C 618.669,112.659 620.669,106.659 622.5,100.5C 626.6,100.763 630.6,100.43 634.5,99.5C 636.983,106.462 639.983,113.128 643.5,119.5C 642.977,127.49 642.644,135.49 642.5,143.5C 644.167,143.5 645.833,143.5 647.5,143.5C 647.5,138.833 647.5,134.167 647.5,129.5C 648.167,129.5 648.833,129.5 649.5,129.5C 646.856,118.923 644.523,108.256 642.5,97.5C 642.5,95.5 642.5,93.5 642.5,91.5C 650.507,91.6664 658.507,91.4997 666.5,91C 668.747,89.005 669.747,86.505 669.5,83.5C 678.5,83.5 687.5,83.5 696.5,83.5C 695.877,90.2547 696.544,96.588 698.5,102.5C 698.5,128.833 698.5,155.167 698.5,181.5C 695.833,181.5 693.167,181.5 690.5,181.5C 689.5,146.838 688.5,146.838 687.5,181.5C 687.167,181.5 686.833,181.5 686.5,181.5C 686.83,174.468 686.497,167.468 685.5,160.5C 684.749,161.376 684.249,162.376 684,163.5C 683.667,160.833 683.333,158.167 683,155.5C 681.919,164.135 681.419,172.801 681.5,181.5C 680.5,181.5 679.5,181.5 678.5,181.5C 678.83,174.468 678.497,167.468 677.5,160.5C 676.749,161.376 676.249,162.376 676,163.5C 675.667,160.833 675.333,158.167 675,155.5C 673.919,164.135 673.419,172.801 673.5,181.5C 673.167,181.5 672.833,181.5 672.5,181.5C 671.5,146.838 670.5,146.838 669.5,181.5C 668.833,181.5 668.167,181.5 667.5,181.5C 667.83,174.468 667.497,167.468 666.5,160.5C 665.749,161.376 665.249,162.376 665,163.5C 664.667,160.833 664.333,158.167 664,155.5C 662.919,164.135 662.419,172.801 662.5,181.5C 661.5,181.5 660.5,181.5 659.5,181.5C 659.83,174.468 659.497,167.468 658.5,160.5C 657.749,161.376 657.249,162.376 657,163.5C 656.667,160.833 656.333,158.167 656,155.5C 654.919,164.135 654.419,172.801 654.5,181.5C 652.5,181.5 650.5,181.5 648.5,181.5C 647.5,146.838 646.5,146.838 645.5,181.5C 645.167,181.5 644.833,181.5 644.5,181.5C 643.833,168.167 643.167,168.167 642.5,181.5C 642.167,181.5 641.833,181.5 641.5,181.5C 640.5,146.838 639.5,146.838 638.5,181.5C 637.833,181.5 637.167,181.5 636.5,181.5C 635.833,168.167 635.167,168.167 634.5,181.5C 634.167,181.5 633.833,181.5 633.5,181.5C 632.5,146.838 631.5,146.838 630.5,181.5C 630.167,181.5 629.833,181.5 629.5,181.5C 628.5,146.838 627.5,146.838 626.5,181.5C 626.167,181.5 625.833,181.5 625.5,181.5C 625.83,174.468 625.497,167.468 624.5,160.5C 623.749,161.376 623.249,162.376 623,163.5C 622.667,160.833 622.333,158.167 622,155.5C 620.919,164.135 620.419,172.801 620.5,181.5C 619.833,181.5 619.167,181.5 618.5,181.5C 617.833,168.167 617.167,168.167 616.5,181.5C 616.167,181.5 615.833,181.5 615.5,181.5C 614.5,146.838 613.5,146.838 612.5,181.5C 611.5,181.5 610.5,181.5 609.5,181.5C 608.5,146.838 607.5,146.838 606.5,181.5C 606.167,181.5 605.833,181.5 605.5,181.5C 605.83,174.468 605.497,167.468 604.5,160.5C 603.749,161.376 603.249,162.376 603,163.5C 602.667,160.833 602.333,158.167 602,155.5C 600.919,164.135 600.419,172.801 600.5,181.5C 599.833,181.5 599.167,181.5 598.5,181.5C 597.833,168.167 597.167,168.167 596.5,181.5C 595.833,181.5 595.167,181.5 594.5,181.5C 593.5,146.838 592.5,146.838 591.5,181.5C 591.167,181.5 590.833,181.5 590.5,181.5C 589.5,146.838 588.5,146.838 587.5,181.5C 587.167,181.5 586.833,181.5 586.5,181.5C 585.833,168.167 585.167,168.167 584.5,181.5C 584.167,181.5 583.833,181.5 583.5,181.5C 582.5,146.838 581.5,146.838 580.5,181.5C 579.833,181.5 579.167,181.5 578.5,181.5C 578.83,174.468 578.497,167.468 577.5,160.5C 576.749,161.376 576.249,162.376 576,163.5C 575.667,160.833 575.333,158.167 575,155.5C 573.919,164.135 573.419,172.801 573.5,181.5C 571.5,181.5 569.5,181.5 567.5,181.5C 566.5,146.838 565.5,146.838 564.5,181.5C 563.833,181.5 563.167,181.5 562.5,181.5C 562.83,174.468 562.497,167.468 561.5,160.5C 560.749,161.376 560.249,162.376 560,163.5C 559.667,160.833 559.333,158.167 559,155.5C 557.919,164.135 557.419,172.801 557.5,181.5C 557.167,181.5 556.833,181.5 556.5,181.5C 555.833,168.167 555.167,168.167 554.5,181.5C 553.833,181.5 553.167,181.5 552.5,181.5C 551.5,146.838 550.5,146.838 549.5,181.5C 549.167,181.5 548.833,181.5 548.5,181.5C 547.5,146.838 546.5,146.838 545.5,181.5C 545.167,181.5 544.833,181.5 544.5,181.5C 543.833,168.167 543.167,168.167 542.5,181.5C 542.167,181.5 541.833,181.5 541.5,181.5C 540.5,146.838 539.5,146.838 538.5,181.5C 538.167,181.5 537.833,181.5 537.5,181.5C 536.833,168.167 536.167,168.167 535.5,181.5C 535.167,181.5 534.833,181.5 534.5,181.5C 533.5,146.838 532.5,146.838 531.5,181.5C 395.5,181.5 259.5,181.5 123.5,181.5C 97.5049,175.837 82.5049,159.837 78.5,133.5C 80.3272,128.523 81.8272,123.19 83,117.5C 87.165,108.123 92.9983,100.123 100.5,93.5C 108.171,89.8354 116.171,87.0021 124.5,85C 136.134,83.768 147.8,83.268 159.5,83.5 Z"/></g>
<g><path style="opacity:1" fill="#628c6f" d="M 217.5,84.5 C 215.242,87.2778 214.909,90.2778 216.5,93.5C 214.744,98.2676 213.077,103.101 211.5,108C 211.164,109.03 210.497,109.53 209.5,109.5C 209.5,101.167 209.5,92.8333 209.5,84.5C 212.332,82.3533 214.999,82.3533 217.5,84.5 Z"/></g>
<g><path style="opacity:1" fill="#a24822" d="M 237.5,87.5 C 238.167,87.8333 238.833,88.1667 239.5,88.5C 231.862,96.4287 229.529,105.762 232.5,116.5C 218.656,116.829 204.99,116.496 191.5,115.5C 197.5,115.5 203.5,115.5 209.5,115.5C 209.5,113.833 209.5,112.167 209.5,110.5C 211.167,110.5 212.833,110.5 214.5,110.5C 217.5,110.5 220.5,110.5 223.5,110.5C 223.5,104.5 223.5,98.5 223.5,92.5C 224.038,90.8828 224.371,89.2161 224.5,87.5C 228.833,87.5 233.167,87.5 237.5,87.5 Z"/></g>
<g><path style="opacity:1" fill="#d78a6b" d="M 174.5,89.5 C 182.84,89.3336 191.173,89.5003 199.5,90C 200.622,93.4085 200.789,96.9085 200,100.5C 191.579,101.649 183.079,101.816 174.5,101C 173.2,97.1675 173.2,93.3342 174.5,89.5 Z"/></g>
<g><path style="opacity:1" fill="#eec317" d="M 64.5,91.5 C 76.8799,90.8542 88.8799,91.5209 100.5,93.5C 92.9983,100.123 87.165,108.123 83,117.5C 81.8272,123.19 80.3272,128.523 78.5,133.5C 58.0041,132.668 37.3374,132.168 16.5,132C 7.8684,130.528 2.20174,125.695 -0.5,117.5C -0.5,113.833 -0.5,110.167 -0.5,106.5C 2.38267,99.7903 7.38267,95.2903 14.5,93C 31.3384,92.8315 48.005,92.3315 64.5,91.5 Z"/></g>
<g><path style="opacity:1" fill="#644435" d="M 216.5,93.5 C 217.833,94.5 219.167,95.5 220.5,96.5C 218.306,101.08 216.306,105.746 214.5,110.5C 212.833,110.5 211.167,110.5 209.5,110.5C 209.5,110.167 209.5,109.833 209.5,109.5C 210.497,109.53 211.164,109.03 211.5,108C 213.077,103.101 214.744,98.2676 216.5,93.5 Z"/></g>
<g><path style="opacity:1" fill="#b26241" d="M 256.5,97.5 C 267.695,97.5153 271.862,102.849 269,113.5C 262.965,120.065 256.965,120.065 251,113.5C 248.024,106.462 249.857,101.129 256.5,97.5 Z"/></g>
<g><path style="opacity:1" fill="#634534" d="M 642.5,97.5 C 644.523,108.256 646.856,118.923 649.5,129.5C 648.833,129.5 648.167,129.5 647.5,129.5C 646.5,129.5 645.5,129.5 644.5,129.5C 645.139,123.191 644.806,119.858 643.5,119.5C 639.983,113.128 636.983,106.462 634.5,99.5C 637.167,98.8333 639.833,98.1667 642.5,97.5 Z"/></g>
<g><path style="opacity:1" fill="#523628" d="M 615.5,98.5 C 617.701,99.5664 620.035,100.233 622.5,100.5C 620.669,106.659 618.669,112.659 616.5,118.5C 615.49,120.013 615.157,122.347 615.5,125.5C 614.833,126.833 614.167,128.167 613.5,129.5C 612.518,126.038 612.185,122.371 612.5,118.5C 613.376,111.949 614.376,105.283 615.5,98.5 Z"/></g>
<g><path style="opacity:1" fill="#729776" d="M 223.5,92.5 C 223.5,98.5 223.5,104.5 223.5,110.5C 220.5,110.5 217.5,110.5 214.5,110.5C 216.306,105.746 218.306,101.08 220.5,96.5C 221.857,95.4097 222.857,94.0764 223.5,92.5 Z"/></g>
<g><path style="opacity:1" fill="#4f3830" d="M 188.5,115.5 C 186.839,125.998 180.839,129.998 170.5,127.5C 165.051,124.944 162.384,120.611 162.5,114.5C 163.555,107.279 167.722,103.279 175,102.5C 183.29,102.957 187.79,107.291 188.5,115.5 Z"/></g>
<g><path style="opacity:1" fill="#59361f" d="M 289.5,106.5 C 302.837,106.333 316.171,106.5 329.5,107C 333.066,112.651 336.733,118.151 340.5,123.5C 340.189,124.478 339.522,125.145 338.5,125.5C 337.712,124.23 336.712,123.23 335.5,122.5C 334.277,119.726 332.777,117.059 331,114.5C 329.867,112.789 328.367,112.289 326.5,113C 328.733,116.651 331.066,120.151 333.5,123.5C 333.189,124.478 332.522,125.145 331.5,125.5C 330.712,124.23 329.712,123.23 328.5,122.5C 327.277,119.726 325.777,117.059 324,114.5C 322.867,112.789 321.367,112.289 319.5,113C 321.733,116.651 324.066,120.151 326.5,123.5C 326.189,124.478 325.522,125.145 324.5,125.5C 323.712,124.23 322.712,123.23 321.5,122.5C 320.277,119.726 318.777,117.059 317,114.5C 315.867,112.789 314.367,112.289 312.5,113C 314.733,116.651 317.066,120.151 319.5,123.5C 318.779,125.382 317.779,125.715 316.5,124.5C 313.966,120.608 311.3,116.775 308.5,113C 307.5,112.333 306.5,112.333 305.5,113C 307.709,116.586 310.043,120.086 312.5,123.5C 312.167,124.5 311.5,125.167 310.5,125.5C 307.377,121.422 304.377,117.255 301.5,113C 297.514,112.501 293.514,112.334 289.5,112.5C 289.5,110.5 289.5,108.5 289.5,106.5 Z"/></g>
<g><path style="opacity:1" fill="#407327" d="M 523.5,102.5 C 524.806,105.687 524.806,109.02 523.5,112.5C 522.334,109.163 522.334,105.83 523.5,102.5 Z"/></g>
<g><path style="opacity:1" fill="#407327" d="M 582.5,102.5 C 583.806,105.687 583.806,109.02 582.5,112.5C 581.334,109.163 581.334,105.83 582.5,102.5 Z"/></g>
<g><path style="opacity:1" fill="#3d7122" d="M 472.5,103.5 C 473.117,103.611 473.617,103.944 474,104.5C 474.89,107.706 474.557,110.706 473,113.5C 472.502,110.183 472.335,106.85 472.5,103.5 Z"/></g>
<g><path style="opacity:1" fill="#3d7122" d="M 476.5,103.5 C 477.117,103.611 477.617,103.944 478,104.5C 478.89,107.706 478.557,110.706 477,113.5C 476.502,110.183 476.335,106.85 476.5,103.5 Z"/></g>
<g><path style="opacity:1" fill="#3d7122" d="M 498.5,103.5 C 499.117,103.611 499.617,103.944 500,104.5C 500.89,107.706 500.557,110.706 499,113.5C 498.502,110.183 498.335,106.85 498.5,103.5 Z"/></g>
<g><path style="opacity:1" fill="#3d7122" d="M 650.5,103.5 C 651.117,103.611 651.617,103.944 652,104.5C 652.89,107.706 652.557,110.706 651,113.5C 650.502,110.183 650.335,106.85 650.5,103.5 Z"/></g>
<g><path style="opacity:1" fill="#3d7122" d="M 662.5,103.5 C 663.117,103.611 663.617,103.944 664,104.5C 664.89,107.706 664.557,110.706 663,113.5C 662.502,110.183 662.335,106.85 662.5,103.5 Z"/></g>
<g><path style="opacity:1" fill="#3d7122" d="M 670.5,103.5 C 671.117,103.611 671.617,103.944 672,104.5C 672.89,107.706 672.557,110.706 671,113.5C 670.502,110.183 670.335,106.85 670.5,103.5 Z"/></g>
<g><path style="opacity:1" fill="#3d7122" d="M 674.5,103.5 C 675.117,103.611 675.617,103.944 676,104.5C 676.89,107.706 676.557,110.706 675,113.5C 674.502,110.183 674.335,106.85 674.5,103.5 Z"/></g>
<g><path style="opacity:1" fill="#3d7122" d="M 681.5,103.5 C 682.117,103.611 682.617,103.944 683,104.5C 683.89,107.706 683.557,110.706 682,113.5C 681.502,110.183 681.335,106.85 681.5,103.5 Z"/></g>
<g><path style="opacity:1" fill="#6fc296" d="M 341.5,111.5 C 363.503,111.333 385.503,111.5 407.5,112C 408.833,113.333 408.833,114.667 407.5,116C 385.5,116.667 363.5,116.667 341.5,116C 340.272,114.51 340.272,113.01 341.5,111.5 Z"/></g>
<g><path style="opacity:1" fill="#3d7122" d="M 486.5,103.5 C 487.641,106.64 487.808,109.973 487,113.5C 485.182,110.278 485.016,106.945 486.5,103.5 Z"/></g>
<g><path style="opacity:1" fill="#ae6040" d="M 172.5,112.5 C 178.488,112.664 179.821,115.164 176.5,120C 170.403,120.147 169.07,117.647 172.5,112.5 Z"/></g>
<g><path style="opacity:1" fill="#769c7a" d="M 289.5,112.5 C 293.514,112.334 297.514,112.501 301.5,113C 304.377,117.255 307.377,121.422 310.5,125.5C 311.5,125.167 312.167,124.5 312.5,123.5C 310.043,120.086 307.709,116.586 305.5,113C 306.5,112.333 307.5,112.333 308.5,113C 311.3,116.775 313.966,120.608 316.5,124.5C 315.466,126.817 316.466,127.817 319.5,127.5C 317.198,136.3 311.531,141.467 302.5,143C 263.5,143.667 224.5,143.667 185.5,143C 177.576,140.577 172.576,135.41 170.5,127.5C 180.839,129.998 186.839,125.998 188.5,115.5C 189.5,115.5 190.5,115.5 191.5,115.5C 204.99,116.496 218.656,116.829 232.5,116.5C 236.344,126.51 243.344,133.343 253.5,137C 272.595,138.97 284.595,130.804 289.5,112.5 Z"/></g>
<g><path style="opacity:1" fill="#739372" d="M 321.5,122.5 C 320.508,122.328 319.842,122.662 319.5,123.5C 317.066,120.151 314.733,116.651 312.5,113C 314.367,112.289 315.867,112.789 317,114.5C 318.777,117.059 320.277,119.726 321.5,122.5 Z"/></g>
<g><path style="opacity:1" fill="#5f8366" d="M 328.5,122.5 C 327.508,122.328 326.842,122.662 326.5,123.5C 324.066,120.151 321.733,116.651 319.5,113C 321.367,112.289 322.867,112.789 324,114.5C 325.777,117.059 327.277,119.726 328.5,122.5 Z"/></g>
<g><path style="opacity:1" fill="#5f8367" d="M 335.5,122.5 C 334.508,122.328 333.842,122.662 333.5,123.5C 331.066,120.151 328.733,116.651 326.5,113C 328.367,112.289 329.867,112.789 331,114.5C 332.777,117.059 334.277,119.726 335.5,122.5 Z"/></g>
<g><path style="opacity:1" fill="#327024" d="M 616.5,118.5 C 616.482,126.851 616.815,135.184 617.5,143.5C 616.5,143.5 615.5,143.5 614.5,143.5C 614.425,137.471 614.759,131.471 615.5,125.5C 615.157,122.347 615.49,120.013 616.5,118.5 Z"/></g>
<g><path style="opacity:1" fill="#6fc195" d="M 321.5,122.5 C 322.712,123.23 323.712,124.23 324.5,125.5C 325.522,125.145 326.189,124.478 326.5,123.5C 326.842,122.662 327.508,122.328 328.5,122.5C 329.712,123.23 330.712,124.23 331.5,125.5C 332.522,125.145 333.189,124.478 333.5,123.5C 333.842,122.662 334.508,122.328 335.5,122.5C 336.712,123.23 337.712,124.23 338.5,125.5C 339.522,125.145 340.189,124.478 340.5,123.5C 354.327,122.339 368.327,122.173 382.5,123C 383.833,124.333 383.833,125.667 382.5,127C 361.503,127.5 340.503,127.667 319.5,127.5C 316.466,127.817 315.466,126.817 316.5,124.5C 317.779,125.715 318.779,125.382 319.5,123.5C 319.842,122.662 320.508,122.328 321.5,122.5 Z"/></g>
<g><path style="opacity:1" fill="#38732b" d="M 647.5,129.5 C 647.5,134.167 647.5,138.833 647.5,143.5C 645.833,143.5 644.167,143.5 642.5,143.5C 642.644,135.49 642.977,127.49 643.5,119.5C 644.806,119.858 645.139,123.191 644.5,129.5C 645.5,129.5 646.5,129.5 647.5,129.5 Z"/></g>
<g><path style="opacity:1" fill="#36742c" d="M 532.5,117.5 C 533.486,121.97 533.819,126.637 533.5,131.5C 534.5,131.5 535.5,131.5 536.5,131.5C 536.826,135.884 536.492,140.217 535.5,144.5C 534.264,143.754 532.93,143.421 531.5,143.5C 531.584,134.822 531.917,126.155 532.5,117.5 Z"/></g>
<g><path style="opacity:1" fill="#347328" d="M 538.5,117.5 C 539.457,125.995 540.123,134.662 540.5,143.5C 539.5,143.5 538.5,143.5 537.5,143.5C 537.584,134.822 537.917,126.155 538.5,117.5 Z"/></g>
<g><path style="opacity:1" fill="#347328" d="M 546.5,117.5 C 547.457,125.995 548.123,134.662 548.5,143.5C 547.5,143.5 546.5,143.5 545.5,143.5C 545.584,134.822 545.917,126.155 546.5,117.5 Z"/></g>
<g><path style="opacity:1" fill="#347328" d="M 550.5,117.5 C 551.457,125.995 552.123,134.662 552.5,143.5C 551.5,143.5 550.5,143.5 549.5,143.5C 549.584,134.822 549.917,126.155 550.5,117.5 Z"/></g>
<g><path style="opacity:1" fill="#397631" d="M 558.5,117.5 C 559.317,119.969 559.817,122.635 560,125.5C 560.249,124.376 560.749,123.376 561.5,122.5C 562.497,129.468 562.83,136.468 562.5,143.5C 560.833,143.5 559.167,143.5 557.5,143.5C 557.584,134.822 557.917,126.155 558.5,117.5 Z"/></g>
<g><path style="opacity:1" fill="#347328" d="M 565.5,117.5 C 566.457,125.995 567.123,134.662 567.5,143.5C 566.5,143.5 565.5,143.5 564.5,143.5C 564.584,134.822 564.917,126.155 565.5,117.5 Z"/></g>
<g><path style="opacity:1" fill="#397631" d="M 574.5,117.5 C 575.317,119.969 575.817,122.635 576,125.5C 576.249,124.376 576.749,123.376 577.5,122.5C 578.497,129.468 578.83,136.468 578.5,143.5C 576.833,143.5 575.167,143.5 573.5,143.5C 573.584,134.822 573.917,126.155 574.5,117.5 Z"/></g>
<g><path style="opacity:1" fill="#347328" d="M 581.5,117.5 C 582.457,125.995 583.123,134.662 583.5,143.5C 582.5,143.5 581.5,143.5 580.5,143.5C 580.584,134.822 580.917,126.155 581.5,117.5 Z"/></g>
<g><path style="opacity:1" fill="#347328" d="M 588.5,117.5 C 589.457,125.995 590.123,134.662 590.5,143.5C 589.5,143.5 588.5,143.5 587.5,143.5C 587.584,134.822 587.917,126.155 588.5,117.5 Z"/></g>
<g><path style="opacity:1" fill="#347328" d="M 596.5,117.5 C 597.457,125.995 598.123,134.662 598.5,143.5C 597.5,143.5 596.5,143.5 595.5,143.5C 595.584,134.822 595.917,126.155 596.5,117.5 Z"/></g>
<g><path style="opacity:1" fill="#347328" d="M 604.5,117.5 C 605.457,125.995 606.123,134.662 606.5,143.5C 605.5,143.5 604.5,143.5 603.5,143.5C 603.584,134.822 603.917,126.155 604.5,117.5 Z"/></g>
<g><path style="opacity:1" fill="#35742a" d="M 612.5,118.5 C 612.185,122.371 612.518,126.038 613.5,129.5C 613.5,134.167 613.5,138.833 613.5,143.5C 612.5,143.5 611.5,143.5 610.5,143.5C 610.319,134.381 610.986,126.048 612.5,118.5 Z"/></g>
<g><path style="opacity:1" fill="#347328" d="M 623.5,117.5 C 624.457,125.995 625.123,134.662 625.5,143.5C 624.5,143.5 623.5,143.5 622.5,143.5C 622.584,134.822 622.917,126.155 623.5,117.5 Z"/></g>
<g><path style="opacity:1" fill="#35742a" d="M 635.5,117.5 C 636.818,125.968 637.485,134.635 637.5,143.5C 636.5,143.5 635.5,143.5 634.5,143.5C 634.584,134.822 634.917,126.155 635.5,117.5 Z"/></g>
<g><path style="opacity:1" fill="#337327" d="M 649.5,129.5 C 650.324,125.688 650.824,121.688 651,117.5C 651.463,126.174 651.963,134.841 652.5,143.5C 651.5,143.5 650.5,143.5 649.5,143.5C 649.5,138.833 649.5,134.167 649.5,129.5 Z"/></g>
<g><path style="opacity:1" fill="#397631" d="M 655.5,117.5 C 656.317,119.969 656.817,122.635 657,125.5C 657.249,124.376 657.749,123.376 658.5,122.5C 659.497,129.468 659.83,136.468 659.5,143.5C 657.833,143.5 656.167,143.5 654.5,143.5C 654.584,134.822 654.917,126.155 655.5,117.5 Z"/></g>
<g><path style="opacity:1" fill="#347328" d="M 662.5,117.5 C 663.457,125.995 664.123,134.662 664.5,143.5C 663.5,143.5 662.5,143.5 661.5,143.5C 661.584,134.822 661.917,126.155 662.5,117.5 Z"/></g>
<g><path style="opacity:1" fill="#347328" d="M 669.5,117.5 C 670.457,125.995 671.123,134.662 671.5,143.5C 670.5,143.5 669.5,143.5 668.5,143.5C 668.584,134.822 668.917,126.155 669.5,117.5 Z"/></g>
<g><path style="opacity:1" fill="#397631" d="M 674.5,117.5 C 675.317,119.969 675.817,122.635 676,125.5C 676.249,124.376 676.749,123.376 677.5,122.5C 678.497,129.468 678.83,136.468 678.5,143.5C 676.833,143.5 675.167,143.5 673.5,143.5C 673.584,134.822 673.917,126.155 674.5,117.5 Z"/></g>
<g><path style="opacity:1" fill="#397631" d="M 682.5,117.5 C 683.317,119.969 683.817,122.635 684,125.5C 684.249,124.376 684.749,123.376 685.5,122.5C 686.497,129.468 686.83,136.468 686.5,143.5C 684.833,143.5 683.167,143.5 681.5,143.5C 681.584,134.822 681.917,126.155 682.5,117.5 Z"/></g>
<g><path style="opacity:1" fill="#347328" d="M 688.5,117.5 C 689.457,125.995 690.123,134.662 690.5,143.5C 689.5,143.5 688.5,143.5 687.5,143.5C 687.584,134.822 687.917,126.155 688.5,117.5 Z"/></g>
<g><path style="opacity:1" fill="#6fc296" d="M 337.5,131.5 C 359.503,131.333 381.503,131.5 403.5,132C 404.833,133.333 404.833,134.667 403.5,136C 381.5,136.667 359.5,136.667 337.5,136C 336.272,134.51 336.272,133.01 337.5,131.5 Z"/></g>
<g><path style="opacity:1" fill="#3c7835" d="M 607.5,128.5 C 608.809,130.571 609.475,133.071 609.5,136C 609.167,138.5 608.833,141 608.5,143.5C 607.506,138.544 607.173,133.544 607.5,128.5 Z"/></g>
<g><path style="opacity:1" fill="#347328" d="M 445.5,135.5 C 446.457,143.995 447.123,152.662 447.5,161.5C 446.5,161.5 445.5,161.5 444.5,161.5C 444.584,152.822 444.917,144.155 445.5,135.5 Z"/></g>
<g><path style="opacity:1" fill="#397631" d="M 454.5,135.5 C 455.317,137.969 455.817,140.635 456,143.5C 456.249,142.376 456.749,141.376 457.5,140.5C 458.497,147.468 458.83,154.468 458.5,161.5C 456.833,161.5 455.167,161.5 453.5,161.5C 453.584,152.822 453.917,144.155 454.5,135.5 Z"/></g>
<g><path style="opacity:1" fill="#347328" d="M 460.5,135.5 C 461.457,143.995 462.123,152.662 462.5,161.5C 461.5,161.5 460.5,161.5 459.5,161.5C 459.584,152.822 459.917,144.155 460.5,135.5 Z"/></g>
<g><path style="opacity:1" fill="#347328" d="M 464.5,135.5 C 465.457,143.995 466.123,152.662 466.5,161.5C 465.5,161.5 464.5,161.5 463.5,161.5C 463.584,152.822 463.917,144.155 464.5,135.5 Z"/></g>
<g><path style="opacity:1" fill="#397631" d="M 473.5,135.5 C 474.317,137.969 474.817,140.635 475,143.5C 475.249,142.376 475.749,141.376 476.5,140.5C 477.497,147.468 477.83,154.468 477.5,161.5C 475.833,161.5 474.167,161.5 472.5,161.5C 472.584,152.822 472.917,144.155 473.5,135.5 Z"/></g>
<g><path style="opacity:1" fill="#347328" d="M 480.5,135.5 C 481.457,143.995 482.123,152.662 482.5,161.5C 481.5,161.5 480.5,161.5 479.5,161.5C 479.584,152.822 479.917,144.155 480.5,135.5 Z"/></g>
<g><path style="opacity:1" fill="#347328" d="M 490.5,135.5 C 491.457,143.995 492.123,152.662 492.5,161.5C 491.5,161.5 490.5,161.5 489.5,161.5C 489.584,152.822 489.917,144.155 490.5,135.5 Z"/></g>
<g><path style="opacity:1" fill="#347328" d="M 497.5,135.5 C 498.457,143.995 499.123,152.662 499.5,161.5C 498.5,161.5 497.5,161.5 496.5,161.5C 496.584,152.822 496.917,144.155 497.5,135.5 Z"/></g>
<g><path style="opacity:1" fill="#347328" d="M 508.5,135.5 C 509.457,143.995 510.123,152.662 510.5,161.5C 509.5,161.5 508.5,161.5 507.5,161.5C 507.584,152.822 507.917,144.155 508.5,135.5 Z"/></g>
<g><path style="opacity:1" fill="#347328" d="M 516.5,135.5 C 517.457,143.995 518.123,152.662 518.5,161.5C 517.5,161.5 516.5,161.5 515.5,161.5C 515.584,152.822 515.917,144.155 516.5,135.5 Z"/></g>
<g><path style="opacity:1" fill="#347328" d="M 523.5,135.5 C 524.457,143.995 525.123,152.662 525.5,161.5C 524.5,161.5 523.5,161.5 522.5,161.5C 522.584,152.822 522.917,144.155 523.5,135.5 Z"/></g>
<g><path style="opacity:1" fill="#357429" d="M 553.5,133.5 C 554.777,134.694 555.444,136.36 555.5,138.5C 555.167,140.167 554.833,141.833 554.5,143.5C 553.513,140.232 553.18,136.898 553.5,133.5 Z"/></g>
<g><path style="opacity:1" fill="#357429" d="M 584.5,133.5 C 585.777,134.694 586.444,136.36 586.5,138.5C 586.167,140.167 585.833,141.833 585.5,143.5C 584.513,140.232 584.18,136.898 584.5,133.5 Z"/></g>
<g><path style="opacity:1" fill="#357429" d="M 599.5,133.5 C 600.777,134.694 601.444,136.36 601.5,138.5C 601.167,140.167 600.833,141.833 600.5,143.5C 599.513,140.232 599.18,136.898 599.5,133.5 Z"/></g>
<g><path style="opacity:1" fill="#357429" d="M 618.5,133.5 C 619.777,134.694 620.444,136.36 620.5,138.5C 620.167,140.167 619.833,141.833 619.5,143.5C 618.513,140.232 618.18,136.898 618.5,133.5 Z"/></g>
<g><path style="opacity:1" fill="#38752f" d="M 629.5,117.5 C 630.457,125.995 631.123,134.662 631.5,143.5C 629.833,143.5 628.167,143.5 626.5,143.5C 626.171,137.463 626.504,131.463 627.5,125.5C 628.192,126.025 628.692,126.692 629,127.5C 629.498,124.183 629.665,120.85 629.5,117.5 Z"/></g>
<g><path style="opacity:1" fill="#357429" d="M 665.5,133.5 C 666.777,134.694 667.444,136.36 667.5,138.5C 667.167,140.167 666.833,141.833 666.5,143.5C 665.513,140.232 665.18,136.898 665.5,133.5 Z"/></g>
<g><path style="opacity:1" fill="#357429" d="M 542.5,134.5 C 543.777,135.694 544.444,137.36 544.5,139.5C 544.167,141.167 543.833,142.833 543.5,144.5C 542.513,141.232 542.18,137.898 542.5,134.5 Z"/></g>
<g><path style="opacity:1" fill="#357429" d="M 448.5,151.5 C 449.777,152.694 450.444,154.36 450.5,156.5C 450.167,158.167 449.833,159.833 449.5,161.5C 448.513,158.232 448.18,154.898 448.5,151.5 Z"/></g>
<g><path style="opacity:1" fill="#357429" d="M 468.5,151.5 C 469.777,152.694 470.444,154.36 470.5,156.5C 470.167,158.167 469.833,159.833 469.5,161.5C 468.513,158.232 468.18,154.898 468.5,151.5 Z"/></g>
<g><path style="opacity:1" fill="#357429" d="M 493.5,151.5 C 494.777,152.694 495.444,154.36 495.5,156.5C 495.167,158.167 494.833,159.833 494.5,161.5C 493.513,158.232 493.18,154.898 493.5,151.5 Z"/></g>
<g><path style="opacity:1" fill="#38752f" d="M 504.5,135.5 C 505.457,143.995 506.123,152.662 506.5,161.5C 504.833,161.5 503.167,161.5 501.5,161.5C 501.171,155.463 501.504,149.463 502.5,143.5C 503.192,144.025 503.692,144.692 504,145.5C 504.498,142.183 504.665,138.85 504.5,135.5 Z"/></g>
<g><path style="opacity:1" fill="#357429" d="M 511.5,151.5 C 512.777,152.694 513.444,154.36 513.5,156.5C 513.167,158.167 512.833,159.833 512.5,161.5C 511.513,158.232 511.18,154.898 511.5,151.5 Z"/></g>
<g><path style="opacity:1" fill="#357429" d="M 519.5,151.5 C 520.777,152.694 521.444,154.36 521.5,156.5C 521.167,158.167 520.833,159.833 520.5,161.5C 519.513,158.232 519.18,154.898 519.5,151.5 Z"/></g>
<g><path style="opacity:1" fill="#347328" d="M 534.5,181.5 C 533.5,181.5 532.5,181.5 531.5,181.5C 532.5,146.838 533.5,146.838 534.5,181.5 Z"/></g>
<g><path style="opacity:1" fill="#347328" d="M 541.5,181.5 C 540.5,181.5 539.5,181.5 538.5,181.5C 539.5,146.838 540.5,146.838 541.5,181.5 Z"/></g>
<g><path style="opacity:1" fill="#347328" d="M 548.5,181.5 C 547.5,181.5 546.5,181.5 545.5,181.5C 546.5,146.838 547.5,146.838 548.5,181.5 Z"/></g>
<g><path style="opacity:1" fill="#347328" d="M 552.5,181.5 C 551.5,181.5 550.5,181.5 549.5,181.5C 550.5,146.838 551.5,146.838 552.5,181.5 Z"/></g>
<g><path style="opacity:1" fill="#397631" d="M 562.5,181.5 C 560.833,181.5 559.167,181.5 557.5,181.5C 557.419,172.801 557.919,164.135 559,155.5C 559.333,158.167 559.667,160.833 560,163.5C 560.249,162.376 560.749,161.376 561.5,160.5C 562.497,167.468 562.83,174.468 562.5,181.5 Z"/></g>
<g><path style="opacity:1" fill="#347328" d="M 567.5,181.5 C 566.5,181.5 565.5,181.5 564.5,181.5C 565.5,146.838 566.5,146.838 567.5,181.5 Z"/></g>
<g><path style="opacity:1" fill="#397631" d="M 578.5,181.5 C 576.833,181.5 575.167,181.5 573.5,181.5C 573.419,172.801 573.919,164.135 575,155.5C 575.333,158.167 575.667,160.833 576,163.5C 576.249,162.376 576.749,161.376 577.5,160.5C 578.497,167.468 578.83,174.468 578.5,181.5 Z"/></g>
<g><path style="opacity:1" fill="#347328" d="M 583.5,181.5 C 582.5,181.5 581.5,181.5 580.5,181.5C 581.5,146.838 582.5,146.838 583.5,181.5 Z"/></g>
<g><path style="opacity:1" fill="#347328" d="M 590.5,181.5 C 589.5,181.5 588.5,181.5 587.5,181.5C 588.5,146.838 589.5,146.838 590.5,181.5 Z"/></g>
<g><path style="opacity:1" fill="#347328" d="M 594.5,181.5 C 593.5,181.5 592.5,181.5 591.5,181.5C 592.5,146.838 593.5,146.838 594.5,181.5 Z"/></g>
<g><path style="opacity:1" fill="#397631" d="M 605.5,181.5 C 603.833,181.5 602.167,181.5 600.5,181.5C 600.419,172.801 600.919,164.135 602,155.5C 602.333,158.167 602.667,160.833 603,163.5C 603.249,162.376 603.749,161.376 604.5,160.5C 605.497,167.468 605.83,174.468 605.5,181.5 Z"/></g>
<g><path style="opacity:1" fill="#347328" d="M 609.5,181.5 C 608.5,181.5 607.5,181.5 606.5,181.5C 607.5,146.838 608.5,146.838 609.5,181.5 Z"/></g>
<g><path style="opacity:1" fill="#347328" d="M 615.5,181.5 C 614.5,181.5 613.5,181.5 612.5,181.5C 613.5,146.838 614.5,146.838 615.5,181.5 Z"/></g>
<g><path style="opacity:1" fill="#397631" d="M 625.5,181.5 C 623.833,181.5 622.167,181.5 620.5,181.5C 620.419,172.801 620.919,164.135 622,155.5C 622.333,158.167 622.667,160.833 623,163.5C 623.249,162.376 623.749,161.376 624.5,160.5C 625.497,167.468 625.83,174.468 625.5,181.5 Z"/></g>
<g><path style="opacity:1" fill="#347328" d="M 629.5,181.5 C 628.5,181.5 627.5,181.5 626.5,181.5C 627.5,146.838 628.5,146.838 629.5,181.5 Z"/></g>
<g><path style="opacity:1" fill="#347328" d="M 633.5,181.5 C 632.5,181.5 631.5,181.5 630.5,181.5C 631.5,146.838 632.5,146.838 633.5,181.5 Z"/></g>
<g><path style="opacity:1" fill="#347328" d="M 641.5,181.5 C 640.5,181.5 639.5,181.5 638.5,181.5C 639.5,146.838 640.5,146.838 641.5,181.5 Z"/></g>
<g><path style="opacity:1" fill="#347328" d="M 648.5,181.5 C 647.5,181.5 646.5,181.5 645.5,181.5C 646.5,146.838 647.5,146.838 648.5,181.5 Z"/></g>
<g><path style="opacity:1" fill="#397631" d="M 659.5,181.5 C 657.833,181.5 656.167,181.5 654.5,181.5C 654.419,172.801 654.919,164.135 656,155.5C 656.333,158.167 656.667,160.833 657,163.5C 657.249,162.376 657.749,161.376 658.5,160.5C 659.497,167.468 659.83,174.468 659.5,181.5 Z"/></g>
<g><path style="opacity:1" fill="#397631" d="M 667.5,181.5 C 665.833,181.5 664.167,181.5 662.5,181.5C 662.419,172.801 662.919,164.135 664,155.5C 664.333,158.167 664.667,160.833 665,163.5C 665.249,162.376 665.749,161.376 666.5,160.5C 667.497,167.468 667.83,174.468 667.5,181.5 Z"/></g>
<g><path style="opacity:1" fill="#347328" d="M 672.5,181.5 C 671.5,181.5 670.5,181.5 669.5,181.5C 670.5,146.838 671.5,146.838 672.5,181.5 Z"/></g>
<g><path style="opacity:1" fill="#397631" d="M 678.5,181.5 C 676.833,181.5 675.167,181.5 673.5,181.5C 673.419,172.801 673.919,164.135 675,155.5C 675.333,158.167 675.667,160.833 676,163.5C 676.249,162.376 676.749,161.376 677.5,160.5C 678.497,167.468 678.83,174.468 678.5,181.5 Z"/></g>
<g><path style="opacity:1" fill="#397631" d="M 686.5,181.5 C 684.833,181.5 683.167,181.5 681.5,181.5C 681.419,172.801 681.919,164.135 683,155.5C 683.333,158.167 683.667,160.833 684,163.5C 684.249,162.376 684.749,161.376 685.5,160.5C 686.497,167.468 686.83,174.468 686.5,181.5 Z"/></g>
<g><path style="opacity:1" fill="#347328" d="M 690.5,181.5 C 689.5,181.5 688.5,181.5 687.5,181.5C 688.5,146.838 689.5,146.838 690.5,181.5 Z"/></g>
<g><path style="opacity:1" fill="#357429" d="M 537.5,181.5 C 536.833,181.5 536.167,181.5 535.5,181.5C 536.167,168.167 536.833,168.167 537.5,181.5 Z"/></g>
<g><path style="opacity:1" fill="#357429" d="M 544.5,181.5 C 543.833,181.5 543.167,181.5 542.5,181.5C 543.167,168.167 543.833,168.167 544.5,181.5 Z"/></g>
<g><path style="opacity:1" fill="#357429" d="M 556.5,181.5 C 555.833,181.5 555.167,181.5 554.5,181.5C 555.167,168.167 555.833,168.167 556.5,181.5 Z"/></g>
<g><path style="opacity:1" fill="#357429" d="M 586.5,181.5 C 585.833,181.5 585.167,181.5 584.5,181.5C 585.167,168.167 585.833,168.167 586.5,181.5 Z"/></g>
<g><path style="opacity:1" fill="#357429" d="M 598.5,181.5 C 597.833,181.5 597.167,181.5 596.5,181.5C 597.167,168.167 597.833,168.167 598.5,181.5 Z"/></g>
<g><path style="opacity:1" fill="#357429" d="M 618.5,181.5 C 617.833,181.5 617.167,181.5 616.5,181.5C 617.167,168.167 617.833,168.167 618.5,181.5 Z"/></g>
<g><path style="opacity:1" fill="#357429" d="M 636.5,181.5 C 635.833,181.5 635.167,181.5 634.5,181.5C 635.167,168.167 635.833,168.167 636.5,181.5 Z"/></g>
<g><path style="opacity:1" fill="#357429" d="M 644.5,181.5 C 643.833,181.5 643.167,181.5 642.5,181.5C 643.167,168.167 643.833,168.167 644.5,181.5 Z"/></g>
</svg>
